<svg width="136" height="40" viewBox="0 0 136 40" fill="none" xmlns="http://www.w3.org/2000/svg">
<g clip-path="url(#clip0_191_347)">
<path d="M130.855 40H5.85928C3.10931 40 0.859375 37.75 0.859375 35.0001V5.00064C0.859375 2.25067 3.10931 0.000732422 5.85928 0.000732422H130.855C133.605 0.000732422 135.855 2.25067 135.855 5.00064V35.0001C135.855 37.75 133.605 40 130.855 40Z" fill="#100F0D"/>
<path d="M130.855 0.000732422H5.85928C3.10931 0.000732422 0.859375 2.25067 0.859375 5.00064V35.0001C0.859375 37.75 3.10931 40 5.85928 40H130.855C133.605 40 135.855 37.75 135.855 35.0001V5.00064C135.855 2.25067 133.605 0.000732422 130.855 0.000732422ZM130.855 0.800312C133.171 0.800312 135.055 2.6847 135.055 5.00064V35.0001C135.055 37.316 133.171 39.2004 130.855 39.2004H5.85928C3.54334 39.2004 1.65978 37.316 1.65978 35.0001V5.00064C1.65978 2.6847 3.54334 0.800312 5.85928 0.800312H130.855Z" fill="black"/>
<path d="M107.793 30.0002H109.659V17.4983H107.793V30.0002ZM124.6 22.0021L122.461 27.422H122.397L120.177 22.0021H118.167L121.497 29.5772L119.598 33.7911H121.544L126.675 22.0025L124.6 22.0021ZM114.018 28.5801C113.408 28.5801 112.555 28.2742 112.555 27.5184C112.555 26.5535 113.617 26.1836 114.533 26.1836C115.353 26.1836 115.74 26.3602 116.238 26.6016C116.093 27.7598 115.095 28.5801 114.018 28.5801ZM114.244 21.7287C112.893 21.7287 111.494 22.324 110.915 23.6428L112.571 24.3341C112.925 23.6428 113.584 23.4178 114.276 23.4178C115.24 23.4178 116.222 23.9963 116.237 25.0259V25.1544C115.899 24.9614 115.175 24.6721 114.292 24.6721C112.506 24.6721 110.689 25.6528 110.689 27.4864C110.689 29.159 112.153 30.2367 113.793 30.2367C115.047 30.2367 115.739 29.6738 116.172 29.0141H116.237V29.9797H118.039V25.1864C118.039 22.9669 116.381 21.7287 114.244 21.7287ZM102.711 23.524H100.057V19.239H102.711C104.106 19.239 104.898 20.3937 104.898 21.3814C104.898 22.3502 104.106 23.524 102.711 23.524ZM102.663 17.4986H98.1924V30.0005H100.058V25.2643H102.664C104.732 25.2643 106.764 23.7674 106.764 21.3819C106.764 18.9968 104.731 17.4986 102.663 17.4986ZM78.283 28.5822C76.9939 28.5822 75.9151 27.5025 75.9151 26.0209C75.9151 24.5221 76.9939 23.4272 78.283 23.4272C79.5557 23.4272 80.5545 24.5222 80.5545 26.0209C80.5545 27.5025 79.5557 28.5822 78.283 28.5822ZM80.4256 22.7019H80.3611C79.9424 22.2027 79.1365 21.7515 78.1221 21.7515C75.9952 21.7515 74.046 23.6206 74.046 26.0209C74.046 28.4049 75.9952 30.2576 78.1221 30.2576C79.1365 30.2576 79.9424 29.8064 80.3611 29.2912H80.4256V29.9029C80.4256 31.5306 79.5557 32.4001 78.1541 32.4001C77.0107 32.4001 76.3018 31.5786 76.0116 30.886L74.3847 31.5625C74.8515 32.6898 76.0917 34.0758 78.1542 34.0758C80.3456 34.0758 82.1982 32.7867 82.1982 29.645V22.0092H80.4257L80.4256 22.7019ZM83.4873 29.9998H85.3552V17.498H83.4873V29.9998ZM88.1103 25.8757C88.0622 24.2323 89.3836 23.3948 90.3337 23.3948C91.0751 23.3948 91.7027 23.7655 91.913 24.2968L88.1103 25.8757ZM93.9098 24.4577C93.5555 23.5078 92.4762 21.7515 90.2692 21.7515C88.0778 21.7515 86.2575 23.4753 86.2575 26.0046C86.2575 28.3889 88.0622 30.2576 90.4782 30.2576C92.4274 30.2576 93.5555 29.0659 94.023 28.3729L92.573 27.4061C92.0895 28.1151 91.4294 28.5823 90.4782 28.5823C89.5282 28.5823 88.8513 28.1472 88.417 27.2933L94.1031 24.9414L93.9098 24.4577ZM48.6027 23.0566V24.8608H52.9201C52.7912 25.8757 52.4529 26.6167 51.9373 27.1323C51.3088 27.7604 50.3261 28.4534 48.6027 28.4534C45.9444 28.4534 43.8664 26.3108 43.8664 23.6527C43.8664 20.9945 45.9444 18.8517 48.6027 18.8517C50.0365 18.8517 51.0834 19.4156 51.8568 20.1406L53.1298 18.8676C52.0501 17.8367 50.6166 17.0474 48.6027 17.0474C44.9612 17.0474 41.9004 20.0117 41.9004 23.6527C41.9004 27.2933 44.9612 30.2576 48.6027 30.2576C50.5678 30.2576 52.0502 29.6132 53.2099 28.405C54.4021 27.2128 54.7728 25.5374 54.7728 24.184C54.7728 23.7656 54.7403 23.3789 54.6759 23.0566H48.6027ZM59.6818 28.5822C58.3927 28.5822 57.281 27.5189 57.281 26.0046C57.281 24.4741 58.3927 23.4273 59.6818 23.4273C60.9704 23.4273 62.082 24.4741 62.082 26.0046C62.082 27.5189 60.9704 28.5822 59.6818 28.5822ZM59.6818 21.7515C57.329 21.7515 55.4122 23.5397 55.4122 26.0046C55.4122 28.4534 57.329 30.2576 59.6818 30.2576C62.0337 30.2576 63.9508 28.4534 63.9508 26.0046C63.9508 23.5397 62.0337 21.7515 59.6818 21.7515ZM68.9946 28.5822C67.7064 28.5822 66.5944 27.5189 66.5944 26.0046C66.5944 24.4741 67.7065 23.4273 68.9946 23.4273C70.2837 23.4273 71.395 24.4741 71.395 26.0046C71.395 27.5189 70.2837 28.5822 68.9946 28.5822ZM68.9946 21.7515C66.6427 21.7515 64.726 23.5397 64.726 26.0046C64.726 28.4534 66.6427 30.2576 68.9946 30.2576C71.3474 30.2576 73.2642 28.4534 73.2642 26.0046C73.2642 23.5397 71.3474 21.7515 68.9946 21.7515Z" fill="white"/>
<path d="M21.5733 19.4245L10.9277 30.724C10.9281 30.7263 10.9289 30.7283 10.9293 30.7307C11.2558 31.9577 12.3765 32.8612 13.7066 32.8612C14.2383 32.8612 14.7375 32.7174 15.1656 32.4651L15.1996 32.4451L27.1831 25.5301L21.5733 19.4245Z" fill="#EB3131"/>
<path d="M32.3447 17.5006L32.3345 17.4937L27.1608 14.4944L21.332 19.6811L27.1811 25.5294L32.3275 22.56C33.2297 22.0729 33.8423 21.1217 33.8423 20.0248C33.8423 18.9358 33.2381 17.9893 32.3447 17.5006Z" fill="#F6B60B"/>
<path d="M10.9277 9.27759C10.8637 9.51358 10.8301 9.76078 10.8301 10.0175V29.9848C10.8301 30.2411 10.8633 30.4891 10.9281 30.7243L21.9412 19.7134L10.9277 9.27759Z" fill="#5778C5"/>
<path d="M21.6528 20.0011L27.1633 14.4922L15.1933 7.55211C14.7582 7.29151 14.2504 7.14111 13.707 7.14111C12.3769 7.14111 11.2547 8.04622 10.9281 9.27465C10.9277 9.27585 10.9277 9.27668 10.9277 9.27773L21.6528 20.0011Z" fill="#3BAD49"/>
<path d="M48.2527 9.78163H45.3355V10.5035H47.5215C47.4621 11.0926 47.2277 11.5551 46.8324 11.891C46.4371 12.227 45.9324 12.3957 45.3355 12.3957C44.6808 12.3957 44.1262 12.1676 43.6716 11.7145C43.2262 11.252 42.9997 10.6801 42.9997 9.99109C42.9997 9.30211 43.2262 8.73019 43.6716 8.26773C44.1262 7.81464 44.6809 7.58805 45.3355 7.58805C45.6715 7.58805 45.9918 7.64585 46.2855 7.77245C46.5793 7.89894 46.8152 8.07554 46.9996 8.30214L47.5543 7.74745C47.3027 7.46146 46.984 7.24275 46.5886 7.08336C46.1933 6.92397 45.7808 6.84747 45.3355 6.84747C44.4621 6.84747 43.7215 7.15056 43.1168 7.75527C42.5121 8.36146 42.209 9.10835 42.209 9.99111C42.209 10.8739 42.5121 11.6224 43.1168 12.2271C43.7215 12.8317 44.4621 13.1349 45.3355 13.1349C46.2526 13.1349 46.9839 12.8411 47.5464 12.2442C48.0417 11.7474 48.2948 11.0755 48.2948 10.2349C48.2948 10.0927 48.2777 9.94102 48.2527 9.78163ZM49.3828 6.98171V13.0004H52.8967V12.2613H50.1562V10.352H52.628V9.63016H50.1562V7.72237H52.8967V6.98169L49.3828 6.98171ZM57.8241 7.7224V6.98171H53.6882V7.7224H55.3695V13.0004H56.1429V7.7224H57.8241ZM61.5685 6.98171H60.7951V13.0004H61.5685V6.98171ZM66.6735 7.7224V6.98171H62.5376V7.7224H64.2188V13.0004H64.9922V7.7224H66.6735ZM74.478 7.76459C73.8811 7.15051 73.1499 6.84741 72.2764 6.84741C71.4015 6.84741 70.6703 7.1505 70.0734 7.75522C69.4765 8.35211 69.1828 9.1005 69.1828 9.99106C69.1828 10.8816 69.4765 11.6301 70.0734 12.227C70.6703 12.8316 71.4015 13.1349 72.2764 13.1349C73.142 13.1349 73.8811 12.8317 74.478 12.227C75.0749 11.6302 75.3686 10.8817 75.3686 9.99106C75.3686 9.1083 75.0749 8.36137 74.478 7.76459ZM70.6281 8.26768C71.0734 7.81459 71.6203 7.588 72.2764 7.588C72.9311 7.588 73.478 7.8146 73.9155 8.26768C74.3608 8.71297 74.5795 9.29414 74.5795 9.99104C74.5795 10.6895 74.3608 11.2691 73.9155 11.7145C73.478 12.1676 72.9311 12.3957 72.2764 12.3957C71.6203 12.3957 71.0734 12.1676 70.6281 11.7145C70.1921 11.2598 69.9734 10.6895 69.9734 9.99104C69.9734 9.29415 70.1921 8.72233 70.6281 8.26768ZM77.2061 9.25206L77.1733 8.09106H77.2061L80.2654 13.0004H81.0732V6.98165H80.2998V10.5034L80.3325 11.6645H80.2998L77.3748 6.98165H76.4327V13.0004H77.2061V9.25206Z" fill="white" stroke="white" stroke-width="0.26666" stroke-miterlimit="10"/>
</g>
<defs>
<clipPath id="clip0_191_347">
<rect width="135.001" height="40" fill="white" transform="translate(0.857422)"/>
</clipPath>
</defs>
</svg>
