<svg width="136" height="40" viewBox="0 0 136 40" fill="none" xmlns="http://www.w3.org/2000/svg">
<g clip-path="url(#clip0_191_356)">
<path d="M129.905 0.476074H6.09589C3.46596 0.476074 1.33398 2.60805 1.33398 5.23798V34.7618C1.33398 37.3917 3.46596 39.5237 6.09589 39.5237H129.905C132.535 39.5237 134.667 37.3917 134.667 34.7618V5.23798C134.667 2.60805 132.535 0.476074 129.905 0.476074Z" fill="black" stroke="black" stroke-width="0.952381"/>
<path d="M48.2998 10.8229V9.232H46.9906V8.57343H49.0933V11.1165C48.7838 11.336 48.4426 11.5027 48.0697 11.6164C47.6968 11.7275 47.2987 11.783 46.8755 11.783C45.9498 11.783 45.2252 11.5133 44.7015 10.9737C44.1804 10.4315 43.9199 9.67772 43.9199 8.71234C43.9199 7.74432 44.1804 6.99054 44.7015 6.45098C45.2252 5.90879 45.9498 5.6377 46.8755 5.6377C47.2617 5.6377 47.628 5.6853 47.9745 5.78052C48.3236 5.87573 48.6449 6.01591 48.9385 6.20104V7.05402C48.6423 6.80276 48.3276 6.61365 47.9943 6.48668C47.661 6.35973 47.3106 6.29625 46.943 6.29625C46.2183 6.29625 45.6734 6.49859 45.3084 6.90325C44.9461 7.30792 44.7649 7.91095 44.7649 8.71235C44.7649 9.5111 44.9461 10.1128 45.3084 10.5175C45.6734 10.9221 46.2183 11.1245 46.943 11.1245C47.226 11.1245 47.4786 11.1007 47.7007 11.0531C47.9229 11.0028 48.1226 10.926 48.2998 10.8229Z" fill="white"/>
<path d="M50.5625 5.74487H54.3075V6.4193H51.3637V8.17285H54.1844V8.84728H51.3637V10.9936H54.3789V11.668H50.5625V5.74487Z" fill="white"/>
<path d="M54.8828 5.74487H59.8935V6.4193H57.7909V11.6681H56.9855V6.4193H54.8828L54.8828 5.74487Z" fill="white"/>
<path d="M63.2578 5.74487H64.0592V11.668H63.2578V5.74487Z" fill="white"/>
<path d="M64.834 5.74487H69.8447V6.4193H67.742V11.6681H66.9367V6.4193H64.834L64.834 5.74487Z" fill="white"/>
<path d="M75.6126 6.28809C75.0307 6.28809 74.5678 6.50498 74.224 6.93874C73.8828 7.3725 73.7122 7.96363 73.7122 8.71212C73.7122 9.45796 73.8828 10.0478 74.224 10.4815C74.5678 10.9153 75.0307 11.1322 75.6126 11.1322C76.1944 11.1322 76.6546 10.9153 76.9932 10.4815C77.3344 10.0478 77.505 9.45796 77.505 8.71212C77.505 7.96363 77.3344 7.3725 76.9932 6.93874C76.6551 6.50509 76.1948 6.28826 75.6122 6.28826L75.6126 6.28809ZM75.6126 5.63745C76.4431 5.63745 77.1069 5.91648 77.6041 6.47455C78.1014 7.02998 78.35 7.77582 78.35 8.71209C78.35 9.64573 78.1014 10.3916 77.6041 10.9496C77.1069 11.5051 76.443 11.7828 75.6126 11.7828C74.7794 11.7828 74.1129 11.5051 73.613 10.9496C73.1158 10.3942 72.8672 9.64838 72.8672 8.71209C72.8672 7.77581 73.1158 7.02996 73.613 6.47455C74.1129 5.91648 74.7794 5.63745 75.6126 5.63745Z" fill="white"/>
<path d="M79.6016 5.74487H80.6807L83.3071 10.7001V5.74487H84.0847V11.668H83.0056L80.3792 6.71273V11.668H79.6016V5.74487Z" fill="white"/>
<path d="M43.9199 32.3805V30.4478L45.6318 30.1164V18.575L43.9199 18.2436V16.2998H56.7204V20.7065H54.2465L54.1029 18.7848H48.8568V23.2136H54.4895V25.6986H48.8568V30.1164L50.5797 30.4478V32.3805H43.9199Z" fill="white"/>
<path d="M58.7188 26.7479V24.2629H64.9478V26.7479H58.7188Z" fill="white"/>
<path d="M66.8926 32.3805V30.4478L68.6266 30.0833V18.6191L66.8926 18.2436V16.2998H73.95C75.3858 16.2998 76.6522 16.6385 77.7493 17.3159C78.8464 17.9859 79.7005 18.9173 80.3116 20.1101C80.9301 21.2956 81.2393 22.6577 81.2393 24.1966V24.4948C81.2393 26.0189 80.9338 27.3774 80.3226 28.5702C79.7189 29.7556 78.8721 30.687 77.7824 31.3644C76.6927 32.0418 75.4299 32.3805 73.9942 32.3805H66.8926ZM71.8515 29.9176H73.8285C74.7194 29.9176 75.4741 29.6857 76.0926 29.2218C76.7111 28.7506 77.1823 28.1063 77.5063 27.289C77.8376 26.4717 78.0033 25.5403 78.0033 24.4948V24.1855C78.0033 23.1253 77.8376 22.1902 77.5063 21.3803C77.1823 20.563 76.7111 19.9261 76.0926 19.4696C75.4741 19.0057 74.7194 18.7738 73.8285 18.7738H71.8515V29.9176Z" fill="white"/>
<path d="M82.9625 32.3805V30.4477L84.5088 30.1164V22.7055L82.7969 22.3742V20.4304H87.5129L87.6343 21.9103L87.6564 22.1754C87.951 21.5274 88.3154 21.0378 88.7498 20.7065C89.1843 20.3751 89.7033 20.2095 90.3071 20.2095C90.4985 20.2095 90.7084 20.2279 90.9366 20.2647C91.1649 20.2941 91.3674 20.3346 91.5441 20.3862L91.2017 23.3571L89.6003 23.2688C89.1438 23.2467 88.7719 23.324 88.4848 23.5007C88.205 23.6774 87.9546 23.9315 87.7337 24.2628V30.1164L89.28 30.4477V32.3805H82.9625Z" fill="white"/>
<path d="M97.9829 32.6124C96.8048 32.6124 95.7924 32.3547 94.9457 31.8393C94.0989 31.3239 93.451 30.6097 93.0018 29.6967C92.5527 28.7763 92.3281 27.7197 92.3281 26.5269V26.295C92.3281 25.1095 92.5527 24.0603 93.0018 23.1473C93.451 22.2269 94.0952 21.509 94.9346 20.9936C95.7814 20.4709 96.7901 20.2095 97.9608 20.2095C99.1462 20.2095 100.159 20.4709 100.998 20.9936C101.837 21.509 102.482 22.2232 102.931 23.1363C103.38 24.0493 103.605 25.1022 103.605 26.295V26.5269C103.605 27.7197 103.38 28.7763 102.931 29.6967C102.482 30.6097 101.837 31.3239 100.998 31.8393C100.159 32.3547 99.1536 32.6124 97.9829 32.6124ZM97.9829 30.1384C98.5425 30.1384 98.999 29.9875 99.3524 29.6856C99.7058 29.3837 99.9672 28.964 100.137 28.4265C100.306 27.8817 100.391 27.2485 100.391 26.5269V26.295C100.391 25.5881 100.306 24.966 100.137 24.4285C99.9672 23.8836 99.7021 23.4602 99.3414 23.1583C98.9879 22.8491 98.5277 22.6945 97.9608 22.6945C97.4086 22.6945 96.9521 22.8491 96.5913 23.1583C96.2305 23.4602 95.9654 23.8836 95.7961 24.4285C95.6341 24.966 95.5531 25.5881 95.5531 26.295V26.5269C95.5531 27.2485 95.6341 27.8817 95.7961 28.4265C95.9654 28.9714 96.2305 29.3948 96.5913 29.6967C96.9521 29.9912 97.4159 30.1384 97.9829 30.1384Z" fill="white"/>
<path d="M104.941 32.3805V30.4477L106.498 30.1164V22.7055L104.775 22.3742V20.4304H109.723V30.1164L111.27 30.4477V32.3805H104.941ZM106.388 17.9012V15.1511H109.723V17.9012H106.388Z" fill="white"/>
<path d="M116.935 32.6124C115.985 32.6124 115.168 32.3694 114.483 31.8835C113.806 31.3902 113.287 30.7054 112.926 29.8292C112.565 28.9456 112.385 27.9148 112.385 26.7368V26.5048C112.385 25.2458 112.565 24.145 112.926 23.2025C113.294 22.2601 113.817 21.5275 114.494 21.0047C115.172 20.4746 115.982 20.2095 116.924 20.2095C117.579 20.2095 118.154 20.342 118.647 20.6071C119.14 20.8648 119.567 21.2329 119.928 21.7115V17.4263L118.205 17.0949V15.1511H123.153V30.1164L124.699 30.4477V32.3805H120.359L120.116 30.9226C119.74 31.4748 119.291 31.8945 118.768 32.1817C118.253 32.4688 117.642 32.6124 116.935 32.6124ZM117.896 30.1053C118.345 30.1053 118.739 30.0096 119.078 29.8182C119.416 29.6267 119.7 29.3506 119.928 28.9898V23.9204C119.707 23.5375 119.427 23.243 119.089 23.0369C118.75 22.8233 118.36 22.7166 117.918 22.7166C117.381 22.7166 116.939 22.8786 116.593 23.2025C116.254 23.5191 116.004 23.9609 115.842 24.5279C115.687 25.0948 115.61 25.7538 115.61 26.5048V26.7368C115.61 27.7823 115.786 28.607 116.14 29.2107C116.493 29.8071 117.079 30.1053 117.896 30.1053Z" fill="white"/>
<path d="M35.701 6.14209L33.0391 9.58804L35.701 6.14209Z" fill="#8AB000"/>
<path d="M35.701 6.14209L33.0391 9.58804" stroke="#769616" stroke-width="1.56643" stroke-linecap="round"/>
<path d="M35.6879 5.35703C35.972 5.36455 36.1652 5.47545 36.3024 5.6381C35.0324 7.14743 34.8185 7.38722 33.0848 9.5362C32.446 10.3626 31.7805 9.9355 32.4193 9.10908L35.0822 5.66289C35.2257 5.47141 35.4487 5.36348 35.6879 5.35703Z" fill="white" fill-opacity="0.29804"/>
<path d="M36.3067 5.64602C36.3844 5.73869 36.6584 6.15016 36.3208 6.62107L33.658 10.0673C33.0192 10.8937 32.9375 9.68361 32.9375 9.68361C32.9375 9.68361 35.2773 6.85792 36.3067 5.64602Z" fill="#263238" fill-opacity="0.2"/>
<path d="M35.8593 5.50425C36.1338 5.50425 36.4607 5.59297 36.3757 6.00463C36.3108 6.31891 33.4555 9.81058 33.4555 9.81058C32.8166 10.637 31.8931 10.2343 32.5319 9.40801L35.185 5.97896C35.3481 5.79726 35.5663 5.51315 35.8593 5.50425Z" fill="#8AB000"/>
<path d="M8.87109 6.14209L11.5342 9.58804L8.87109 6.14209Z" fill="#8AB000"/>
<path d="M8.87109 6.14209L11.5342 9.58804" stroke="#769616" stroke-width="1.56643" stroke-linecap="round"/>
<path d="M8.88403 5.35718C8.59991 5.3647 8.40677 5.4756 8.26953 5.63825C9.53953 7.14758 9.75348 7.38737 11.4871 9.53635C12.126 10.3628 12.7914 9.93565 12.1526 9.10923L9.48975 5.66351C9.34627 5.47203 9.12315 5.36401 8.88398 5.35756L8.88403 5.35718Z" fill="white" fill-opacity="0.29804"/>
<path d="M8.2645 5.64602C8.18687 5.73869 7.91288 6.15016 8.25041 6.62107L10.9133 10.0673C11.5521 10.8937 11.6337 9.68361 11.6337 9.68361C11.6337 9.68361 9.29391 6.85792 8.2645 5.64602Z" fill="#263238" fill-opacity="0.2"/>
<path d="M8.71374 5.5042C8.43919 5.5042 8.11231 5.59292 8.19731 6.00458C8.2622 6.31886 11.1175 9.81053 11.1175 9.81053C11.7564 10.637 12.6799 10.2343 12.0411 9.40796L9.38798 5.97891C9.22488 5.79725 9.0066 5.51301 8.71374 5.5042Z" fill="#8AB000"/>
<path d="M32.3107 8.33325H12.2606C11.2224 8.33325 10.3809 9.17482 10.3809 10.2129V14.5488C10.3809 15.5869 11.2224 16.4285 12.2606 16.4285H32.3107C33.3488 16.4285 34.1904 15.5869 34.1904 14.5488V10.2129C34.1904 9.17482 33.3488 8.33325 32.3107 8.33325Z" fill="#AEEA00"/>
<path d="M32.3107 10.1628H12.2606C11.2224 10.1628 10.3809 11.0044 10.3809 12.0425V14.5489C10.3809 15.587 11.2224 16.4286 12.2606 16.4286H32.3107C33.3488 16.4286 34.1904 15.587 34.1904 14.5489V12.0425C34.1904 11.0044 33.3488 10.1628 32.3107 10.1628Z" fill="#263238" fill-opacity="0.2"/>
<path d="M32.3107 8.33496H12.2606C11.2224 8.33496 10.3809 9.17653 10.3809 10.2147V12.721C10.3809 13.7591 11.2224 14.6007 12.2606 14.6007H32.3107C33.3488 14.6007 34.1904 13.7591 34.1904 12.721V10.2147C34.1904 9.17653 33.3488 8.33496 32.3107 8.33496Z" fill="white" fill-opacity="0.29804"/>
<path d="M32.3107 9.0481H12.2606C11.2224 9.0481 10.3809 9.73694 10.3809 10.5867V14.1767C10.3809 15.0264 11.2224 15.7152 12.2606 15.7152H32.3107C33.3488 15.7152 34.1904 15.0264 34.1904 14.1767V10.5867C34.1904 9.73694 33.3488 9.0481 32.3107 9.0481Z" fill="#AEEA00"/>
<path d="M32.3107 17.1428H12.2606C11.2224 17.1428 10.3809 17.9844 10.3809 19.0225V31.4536C10.3809 32.4917 11.2224 33.3333 12.2606 33.3333H32.3107C33.3488 33.3333 34.1904 32.4917 34.1904 31.4536V19.0225C34.1904 17.9844 33.3488 17.1428 32.3107 17.1428Z" fill="#1976D2"/>
<path d="M32.3107 25.188H12.2606C11.2224 25.188 10.3809 26.0296 10.3809 27.0677V31.4535C10.3809 32.4917 11.2224 33.3332 12.2606 33.3332H32.3107C33.3488 33.3332 34.1904 32.4917 34.1904 31.4535V27.0677C34.1904 26.0296 33.3488 25.188 32.3107 25.188Z" fill="#263238" fill-opacity="0.2"/>
<path d="M32.3107 17.0928H12.2606C11.2224 17.0928 10.3809 17.9343 10.3809 18.9725V23.3583C10.3809 24.3964 11.2224 25.238 12.2606 25.238H32.3107C33.3488 25.238 34.1904 24.3964 34.1904 23.3583V18.9725C34.1904 17.9343 33.3488 17.0928 32.3107 17.0928Z" fill="white" fill-opacity="0.2"/>
<path d="M32.3107 17.8572H12.2606C11.2224 17.8572 10.3809 18.6198 10.3809 19.5605V30.9158C10.3809 31.8565 11.2224 32.6191 12.2606 32.6191H32.3107C33.3488 32.6191 34.1904 31.8565 34.1904 30.9158V19.5605C34.1904 18.6198 33.3488 17.8572 32.3107 17.8572Z" fill="#1976D2"/>
<path d="M22.2867 21.3357C20.4817 21.3357 18.9536 22.5792 18.5064 24.2495H20.5195C20.8668 23.6321 21.519 23.2154 22.2866 23.2154C23.4224 23.2154 24.323 24.116 24.323 25.2518C24.323 26.3875 23.4224 27.2881 22.2866 27.2881C21.4675 27.2881 20.7758 26.8165 20.451 26.1292H18.4746C18.877 27.8621 20.4369 29.1678 22.2868 29.1678C24.4384 29.1678 26.2027 27.4034 26.2027 25.2518C26.2027 23.1002 24.4382 21.3357 22.2867 21.3357Z" fill="#0D47A1"/>
<path d="M22.2865 31.2362C25.5913 31.2362 28.2704 28.5571 28.2704 25.2524C28.2704 21.9476 25.5913 19.2686 22.2865 19.2686C18.9818 19.2686 16.3027 21.9476 16.3027 25.2524C16.3027 28.5571 18.9818 31.2362 22.2865 31.2362Z" stroke="#0D47A1" stroke-width="1.19048" stroke-linecap="round"/>
<path d="M16.2553 14.9138C17.4232 14.9138 18.37 13.8268 18.37 12.486C18.37 11.1451 17.4232 10.0581 16.2553 10.0581C15.0874 10.0581 14.1406 11.1451 14.1406 12.486C14.1406 13.8268 15.0874 14.9138 16.2553 14.9138Z" fill="#263238" fill-opacity="0.2"/>
<path d="M16.2553 14.9139C17.4232 14.9139 18.37 13.9671 18.37 12.7992C18.37 11.6313 17.4232 10.6846 16.2553 10.6846C15.0874 10.6846 14.1406 11.6313 14.1406 12.7992C14.1406 13.9671 15.0874 14.9139 16.2553 14.9139Z" fill="white"/>
<path d="M28.474 14.9138C29.6419 14.9138 30.5887 13.8268 30.5887 12.486C30.5887 11.1451 29.6419 10.0581 28.474 10.0581C27.3061 10.0581 26.3594 11.1451 26.3594 12.486C26.3594 13.8268 27.3061 14.9138 28.474 14.9138Z" fill="#263238" fill-opacity="0.2"/>
<path d="M28.474 14.9139C29.6419 14.9139 30.5887 13.9671 30.5887 12.7992C30.5887 11.6313 29.6419 10.6846 28.474 10.6846C27.3061 10.6846 26.3594 11.6313 26.3594 12.7992C26.3594 13.9671 27.3061 14.9139 28.474 14.9139Z" fill="white"/>
<path d="M8.88406 5.35076C8.73501 5.34682 8.58793 5.3855 8.46011 5.46226C8.33229 5.53902 8.22903 5.65067 8.16247 5.78409C8.0959 5.91751 8.0688 6.06715 8.08435 6.21544C8.09989 6.36373 8.15744 6.5045 8.25023 6.62121L10.5061 9.54074C10.4263 9.74967 10.3805 9.97554 10.3805 10.2132V14.5491C10.3805 15.5905 11.2188 16.4288 12.2602 16.4288H32.3104C33.3518 16.4288 34.19 15.5904 34.19 14.5491V10.2132C34.19 9.97541 34.1448 9.74931 34.065 9.54026L36.3204 6.62121C36.4103 6.50812 36.4671 6.37236 36.4847 6.22896C36.5023 6.08555 36.4798 5.94009 36.4198 5.80864C36.3599 5.6772 36.2647 5.56491 36.1449 5.48418C36.0251 5.40345 35.8853 5.35743 35.7409 5.35121C35.6139 5.34575 35.4874 5.3713 35.3724 5.42567C35.2575 5.48004 35.1574 5.56158 35.0811 5.66326L32.9349 8.44088C32.7421 8.37112 32.5326 8.33231 32.3135 8.33231H12.2633C12.0439 8.33231 11.8346 8.37126 11.6392 8.43973L9.49158 5.66211C9.4207 5.56778 9.32944 5.49069 9.2246 5.43657C9.11975 5.38246 9.00404 5.35273 8.8861 5.34961L8.88406 5.35076ZM12.2602 17.1429C11.2189 17.1429 10.3806 17.9812 10.3806 19.0225V31.4537C10.3806 32.4951 11.2189 33.3334 12.2602 33.3334H32.3105C33.3518 33.3334 34.1901 32.4951 34.1901 31.4537V19.0225C34.1925 17.9825 33.3544 17.1442 32.3139 17.1442H12.2637L12.2602 17.1429Z" fill="url(#paint0_radial_191_356)"/>
</g>
<defs>
<radialGradient id="paint0_radial_191_356" cx="0" cy="0" r="1" gradientUnits="userSpaceOnUse" gradientTransform="translate(8.23783 5.47726) rotate(90) scale(27.8579 28.0951)">
<stop stop-color="white" stop-opacity="0.098039"/>
<stop offset="1" stop-color="white" stop-opacity="0"/>
</radialGradient>
<clipPath id="clip0_191_356">
<rect width="134.286" height="40" fill="white" transform="translate(0.857422)"/>
</clipPath>
</defs>
</svg>
