<svg width="136" height="40" viewBox="0 0 136 40" fill="none" xmlns="http://www.w3.org/2000/svg">
<g clip-path="url(#clip0_191_315)">
<path d="M131.054 40H5.58642C2.97942 40 0.857422 37.872 0.857422 35.267V4.726C0.857422 2.12 2.97942 0 5.58642 0H131.054C133.66 0 135.857 2.12 135.857 4.726V35.267C135.857 37.872 133.66 40 131.054 40Z" fill="black"/>
<path d="M134.89 35.2679C134.89 37.3839 133.176 39.0979 131.056 39.0979H5.58705C3.46805 39.0979 1.74805 37.3839 1.74805 35.2679V4.72489C1.74805 2.60989 3.46805 0.889893 5.58705 0.889893H131.055C133.176 0.889893 134.889 2.60989 134.889 4.72489L134.89 35.2679Z" fill="black"/>
<path d="M30.9845 19.784C30.9555 16.561 33.6235 14.993 33.7455 14.92C32.2345 12.717 29.8925 12.416 29.0695 12.392C27.1025 12.185 25.1945 13.569 24.1925 13.569C23.1705 13.569 21.6275 12.412 19.9645 12.446C17.8245 12.479 15.8225 13.718 14.7245 15.642C12.4585 19.565 14.1485 25.33 16.3195 28.501C17.4055 30.054 18.6745 31.788 20.3355 31.727C21.9605 31.66 22.5675 30.691 24.5285 30.691C26.4715 30.691 27.0415 31.727 28.7355 31.688C30.4795 31.66 31.5775 30.128 32.6255 28.561C33.8805 26.781 34.3845 25.028 34.4045 24.938C34.3635 24.924 31.0175 23.647 30.9845 19.784Z" fill="white"/>
<path d="M27.7845 10.306C28.6585 9.21304 29.2565 7.72604 29.0905 6.21704C27.8255 6.27304 26.2435 7.09204 25.3325 8.16104C24.5265 9.10304 23.8065 10.647 23.9925 12.099C25.4135 12.205 26.8725 11.382 27.7845 10.306Z" fill="white"/>
<path d="M54.5026 31.504H52.2316L50.9876 27.595H46.6636L45.4786 31.504H43.2676L47.5516 18.196H50.1976L54.5026 31.504ZM50.6126 25.955L49.4876 22.48C49.3686 22.125 49.1456 21.289 48.8166 19.973H48.7766C48.6456 20.539 48.4346 21.375 48.1446 22.48L47.0396 25.955H50.6126Z" fill="white"/>
<path d="M65.5203 26.5879C65.5203 28.2199 65.0793 29.5099 64.1973 30.4569C63.4073 31.2999 62.4263 31.7209 61.2553 31.7209C59.9913 31.7209 59.0833 31.2669 58.5303 30.3589H58.4903V35.4139H56.3583V25.0669C56.3583 24.0409 56.3313 22.9879 56.2793 21.9079H58.1543L58.2733 23.4289H58.3133C59.0243 22.2829 60.1033 21.7109 61.5513 21.7109C62.6833 21.7109 63.6283 22.1579 64.3843 23.0529C65.1423 23.9489 65.5203 25.1269 65.5203 26.5879ZM63.3483 26.6659C63.3483 25.7319 63.1383 24.9619 62.7163 24.3559C62.2553 23.7239 61.6363 23.4079 60.8603 23.4079C60.3343 23.4079 59.8563 23.5839 59.4293 23.9309C59.0013 24.2809 58.7213 24.7379 58.5903 25.3039C58.5243 25.5679 58.4913 25.7839 58.4913 25.9539V27.5539C58.4913 28.2519 58.7053 28.8409 59.1333 29.3219C59.5613 29.8029 60.1173 30.0429 60.8013 30.0429C61.6043 30.0429 62.2293 29.7329 62.6763 29.1149C63.1243 28.4959 63.3483 27.6799 63.3483 26.6659Z" fill="white"/>
<path d="M76.5564 26.5879C76.5564 28.2199 76.1154 29.5099 75.2324 30.4569C74.4434 31.2999 73.4624 31.7209 72.2914 31.7209C71.0274 31.7209 70.1194 31.2669 69.5674 30.3589H69.5274V35.4139H67.3954V25.0669C67.3954 24.0409 67.3684 22.9879 67.3164 21.9079H69.1914L69.3104 23.4289H69.3504C70.0604 22.2829 71.1394 21.7109 72.5884 21.7109C73.7194 21.7109 74.6644 22.1579 75.4224 23.0529C76.1774 23.9489 76.5564 25.1269 76.5564 26.5879ZM74.3844 26.6659C74.3844 25.7319 74.1734 24.9619 73.7514 24.3559C73.2904 23.7239 72.6734 23.4079 71.8964 23.4079C71.3694 23.4079 70.8924 23.5839 70.4644 23.9309C70.0364 24.2809 69.7574 24.7379 69.6264 25.3039C69.5614 25.5679 69.5274 25.7839 69.5274 25.9539V27.5539C69.5274 28.2519 69.7414 28.8409 70.1674 29.3219C70.5954 29.8019 71.1514 30.0429 71.8374 30.0429C72.6404 30.0429 73.2654 29.7329 73.7124 29.1149C74.1604 28.4959 74.3844 27.6799 74.3844 26.6659Z" fill="white"/>
<path d="M88.8966 27.772C88.8966 28.904 88.5036 29.825 87.7146 30.536C86.8476 31.313 85.6406 31.701 84.0896 31.701C82.6576 31.701 81.5096 31.425 80.6406 30.872L81.1346 29.095C82.0706 29.661 83.0976 29.945 84.2166 29.945C85.0196 29.945 85.6446 29.763 86.0936 29.401C86.5406 29.039 86.7636 28.553 86.7636 27.947C86.7636 27.407 86.5796 26.952 86.2106 26.583C85.8436 26.214 85.2306 25.871 84.3746 25.554C82.0446 24.685 80.8806 23.412 80.8806 21.738C80.8806 20.644 81.2886 19.747 82.1056 19.049C82.9196 18.35 84.0056 18.001 85.3636 18.001C86.5746 18.001 87.5806 18.212 88.3836 18.633L87.8506 20.371C87.1006 19.963 86.2526 19.759 85.3036 19.759C84.5536 19.759 83.9676 19.944 83.5476 20.312C83.1926 20.641 83.0146 21.042 83.0146 21.517C83.0146 22.043 83.2176 22.478 83.6256 22.82C83.9806 23.136 84.6256 23.478 85.5616 23.847C86.7066 24.308 87.5476 24.847 88.0886 25.465C88.6276 26.081 88.8966 26.852 88.8966 27.772Z" fill="white"/>
<path d="M95.9456 23.5081H93.5956V28.1671C93.5956 29.3521 94.0096 29.9441 94.8396 29.9441C95.2206 29.9441 95.5366 29.9111 95.7866 29.8451L95.8456 31.4641C95.4256 31.6211 94.8726 31.7001 94.1876 31.7001C93.3456 31.7001 92.6876 31.4431 92.2126 30.9301C91.7396 30.4161 91.5016 29.5541 91.5016 28.3431V23.5061H90.1016V21.9061H91.5016V20.1491L93.5956 19.5171V21.9061H95.9456V23.5081Z" fill="white"/>
<path d="M106.549 26.6269C106.549 28.1019 106.127 29.3129 105.285 30.2599C104.402 31.2349 103.23 31.7209 101.769 31.7209C100.361 31.7209 99.2404 31.2539 98.4044 30.3199C97.5684 29.3859 97.1504 28.2069 97.1504 26.7859C97.1504 25.2989 97.5804 24.0809 98.4434 23.1339C99.3044 22.1859 100.466 21.7119 101.927 21.7119C103.335 21.7119 104.468 22.1789 105.323 23.1139C106.141 24.0209 106.549 25.1919 106.549 26.6269ZM104.337 26.6959C104.337 25.8109 104.148 25.0519 103.765 24.4189C103.318 23.6529 102.679 23.2709 101.851 23.2709C100.994 23.2709 100.343 23.6539 99.8964 24.4189C99.5134 25.0529 99.3244 25.8239 99.3244 26.7359C99.3244 27.6209 99.5134 28.3799 99.8964 29.0119C100.357 29.7779 101.001 30.1599 101.832 30.1599C102.646 30.1599 103.285 29.7699 103.746 28.9919C104.139 28.3469 104.337 27.5799 104.337 26.6959Z" fill="white"/>
<path d="M113.478 23.7829C113.267 23.7439 113.042 23.7239 112.806 23.7239C112.056 23.7239 111.476 24.0069 111.068 24.5739C110.713 25.0739 110.535 25.7059 110.535 26.4689V31.5039H108.404L108.424 24.9299C108.424 23.8239 108.397 22.8169 108.344 21.9089H110.201L110.279 23.7449H110.338C110.563 23.1139 110.918 22.6059 111.404 22.2249C111.879 21.8819 112.392 21.7109 112.945 21.7109C113.142 21.7109 113.32 21.7249 113.478 21.7499V23.7829Z" fill="white"/>
<path d="M123.014 26.2519C123.014 26.6339 122.989 26.9559 122.936 27.2189H116.54C116.565 28.1669 116.874 28.8919 117.468 29.3919C118.007 29.8389 118.704 30.0629 119.56 30.0629C120.507 30.0629 121.371 29.9119 122.148 29.6089L122.482 31.0889C121.574 31.4849 120.502 31.6819 119.265 31.6819C117.777 31.6819 116.609 31.2439 115.759 30.3689C114.911 29.4939 114.486 28.3189 114.486 26.8449C114.486 25.3979 114.881 24.1929 115.672 23.2319C116.5 22.2059 117.619 21.6929 119.027 21.6929C120.41 21.6929 121.457 22.2059 122.168 23.2319C122.731 24.0469 123.014 25.0549 123.014 26.2519ZM120.981 25.6989C120.995 25.0669 120.856 24.5209 120.567 24.0599C120.198 23.4669 119.631 23.1709 118.868 23.1709C118.171 23.1709 117.604 23.4599 117.171 24.0399C116.816 24.5009 116.605 25.0539 116.54 25.6979L120.981 25.6989Z" fill="white"/>
<path d="M49.9072 10.0089C49.9072 11.1859 49.5542 12.0719 48.8492 12.6669C48.1962 13.2159 47.2682 13.4909 46.0662 13.4909C45.4702 13.4909 44.9602 13.4649 44.5332 13.4129V6.98195C45.0902 6.89195 45.6902 6.84595 46.3382 6.84595C47.4832 6.84595 48.3462 7.09495 48.9282 7.59295C49.5802 8.15595 49.9072 8.96095 49.9072 10.0089ZM48.8022 10.0379C48.8022 9.27495 48.6002 8.68995 48.1962 8.28195C47.7922 7.87495 47.2022 7.67095 46.4252 7.67095C46.0952 7.67095 45.8142 7.69295 45.5812 7.73895V12.6279C45.7102 12.6479 45.9462 12.6569 46.2892 12.6569C47.0912 12.6569 47.7102 12.4339 48.1462 11.9879C48.5822 11.5419 48.8022 10.8919 48.8022 10.0379Z" fill="white"/>
<path d="M55.7654 11.0368C55.7654 11.7618 55.5584 12.3558 55.1444 12.8218C54.7104 13.3008 54.1354 13.5398 53.4174 13.5398C52.7254 13.5398 52.1744 13.3108 51.7634 12.8508C51.3534 12.3918 51.1484 11.8128 51.1484 11.1148C51.1484 10.3848 51.3594 9.7858 51.7834 9.3208C52.2074 8.8558 52.7774 8.6228 53.4954 8.6228C54.1874 8.6228 54.7434 8.8518 55.1644 9.3108C55.5644 9.7568 55.7654 10.3328 55.7654 11.0368ZM54.6784 11.0708C54.6784 10.6358 54.5844 10.2628 54.3974 9.9518C54.1774 9.5758 53.8644 9.3878 53.4574 9.3878C53.0364 9.3878 52.7164 9.5758 52.4964 9.9518C52.3084 10.2628 52.2154 10.6418 52.2154 11.0898C52.2154 11.5248 52.3094 11.8978 52.4964 12.2088C52.7234 12.5848 53.0394 12.7728 53.4474 12.7728C53.8474 12.7728 54.1614 12.5818 54.3874 12.1988C54.5814 11.8818 54.6784 11.5058 54.6784 11.0708Z" fill="white"/>
<path d="M63.623 8.71899L62.148 13.433H61.188L60.577 11.386C60.422 10.875 60.296 10.367 60.198 9.86299H60.179C60.088 10.381 59.962 10.888 59.8 11.386L59.151 13.433H58.18L56.793 8.71899H57.87L58.403 10.96C58.532 11.49 58.638 11.995 58.723 12.473H58.742C58.82 12.079 58.949 11.577 59.131 10.97L59.8 8.71999H60.654L61.295 10.922C61.45 11.459 61.576 11.976 61.673 12.474H61.702C61.773 11.989 61.88 11.472 62.022 10.922L62.594 8.71999H63.623V8.71899Z" fill="white"/>
<path d="M69.0558 13.4329H68.0078V10.7329C68.0078 9.90087 67.6918 9.48487 67.0578 9.48487C66.7468 9.48487 66.4958 9.59887 66.3008 9.82787C66.1078 10.0569 66.0098 10.3269 66.0098 10.6359V13.4319H64.9618V10.0659C64.9618 9.65187 64.9488 9.20287 64.9238 8.71687H65.8448L65.8938 9.45387H65.9228C66.0448 9.22487 66.2268 9.03587 66.4658 8.88487C66.7498 8.70887 67.0678 8.61987 67.4158 8.61987C67.8558 8.61987 68.2218 8.76187 68.5128 9.04687C68.8748 9.39587 69.0558 9.91687 69.0558 10.6089V13.4329Z" fill="white"/>
<path d="M71.9454 13.4329H70.8984V6.55591H71.9454V13.4329Z" fill="white"/>
<path d="M78.1151 11.0368C78.1151 11.7618 77.908 12.3558 77.494 12.8218C77.06 13.3008 76.4841 13.5398 75.7671 13.5398C75.0741 13.5398 74.523 13.3108 74.113 12.8508C73.703 12.3918 73.498 11.8128 73.498 11.1148C73.498 10.3848 73.709 9.7858 74.133 9.3208C74.557 8.8558 75.127 8.6228 75.844 8.6228C76.537 8.6228 77.092 8.8518 77.514 9.3108C77.914 9.7568 78.1151 10.3328 78.1151 11.0368ZM77.027 11.0708C77.027 10.6358 76.933 10.2628 76.746 9.9518C76.527 9.5758 76.213 9.3878 75.807 9.3878C75.385 9.3878 75.065 9.5758 74.846 9.9518C74.658 10.2628 74.565 10.6418 74.565 11.0898C74.565 11.5248 74.659 11.8978 74.846 12.2088C75.073 12.5848 75.3891 12.7728 75.7971 12.7728C76.1971 12.7728 76.51 12.5818 76.736 12.1988C76.931 11.8818 77.027 11.5058 77.027 11.0708Z" fill="white"/>
<path d="M83.1864 13.4328H82.2454L82.1674 12.8898H82.1384C81.8164 13.3228 81.3574 13.5398 80.7614 13.5398C80.3164 13.5398 79.9564 13.3968 79.6854 13.1128C79.4394 12.8548 79.3164 12.5338 79.3164 12.1528C79.3164 11.5768 79.5564 11.1378 80.0394 10.8338C80.5214 10.5298 81.1994 10.3808 82.0724 10.3878V10.2998C82.0724 9.6788 81.7464 9.3688 81.0934 9.3688C80.6284 9.3688 80.2184 9.4858 79.8644 9.7178L79.6514 9.0298C80.0894 8.7588 80.6304 8.6228 81.2684 8.6228C82.5004 8.6228 83.1184 9.2728 83.1184 10.5728V12.3088C83.1184 12.7798 83.1414 13.1548 83.1864 13.4328ZM82.0984 11.8128V11.0858C80.9424 11.0658 80.3644 11.3828 80.3644 12.0358C80.3644 12.2818 80.4304 12.4658 80.5654 12.5888C80.7004 12.7118 80.8724 12.7728 81.0774 12.7728C81.3074 12.7728 81.5224 12.6998 81.7184 12.5548C81.9154 12.4088 82.0364 12.2238 82.0814 11.9968C82.0924 11.9458 82.0984 11.8838 82.0984 11.8128Z" fill="white"/>
<path d="M89.1426 13.4329H88.2126L88.1636 12.6759H88.1346C87.8376 13.2519 87.3316 13.5399 86.6206 13.5399C86.0526 13.5399 85.5796 13.3169 85.2046 12.8709C84.8296 12.4249 84.6426 11.8459 84.6426 11.1349C84.6426 10.3719 84.8456 9.75391 85.2536 9.28191C85.6486 8.84191 86.1326 8.62191 86.7086 8.62191C87.3416 8.62191 87.7846 8.83491 88.0366 9.26191H88.0566V6.55591H89.1056V12.1629C89.1056 12.6219 89.1176 13.0449 89.1426 13.4329ZM88.0566 11.4449V10.6589C88.0566 10.5229 88.0466 10.4129 88.0276 10.3289C87.9686 10.0769 87.8416 9.86491 87.6486 9.69391C87.4536 9.52291 87.2186 9.43691 86.9476 9.43691C86.5566 9.43691 86.2506 9.59191 86.0256 9.90291C85.8026 10.2139 85.6896 10.6109 85.6896 11.0959C85.6896 11.5619 85.7966 11.9399 86.0116 12.2309C86.2386 12.5409 86.5446 12.6959 86.9276 12.6959C87.2716 12.6959 87.5466 12.5669 87.7556 12.3079C87.9576 12.0689 88.0566 11.7809 88.0566 11.4449Z" fill="white"/>
<path d="M98.1053 11.0368C98.1053 11.7618 97.8983 12.3558 97.4843 12.8218C97.0503 13.3008 96.4763 13.5398 95.7573 13.5398C95.0663 13.5398 94.5153 13.3108 94.1033 12.8508C93.6933 12.3918 93.4883 11.8128 93.4883 11.1148C93.4883 10.3848 93.6993 9.7858 94.1233 9.3208C94.5473 8.8558 95.1173 8.6228 95.8363 8.6228C96.5273 8.6228 97.0843 8.8518 97.5043 9.3108C97.9043 9.7568 98.1053 10.3328 98.1053 11.0368ZM97.0193 11.0708C97.0193 10.6358 96.9253 10.2628 96.7383 9.9518C96.5173 9.5758 96.2053 9.3878 95.7973 9.3878C95.3773 9.3878 95.0573 9.5758 94.8363 9.9518C94.6483 10.2628 94.5553 10.6418 94.5553 11.0898C94.5553 11.5248 94.6493 11.8978 94.8363 12.2088C95.0633 12.5848 95.3793 12.7728 95.7873 12.7728C96.1873 12.7728 96.5023 12.5818 96.7283 12.1988C96.9213 11.8818 97.0193 11.5058 97.0193 11.0708Z" fill="white"/>
<path d="M103.74 13.4329H102.693V10.7329C102.693 9.90087 102.377 9.48487 101.742 9.48487C101.431 9.48487 101.18 9.59887 100.986 9.82787C100.792 10.0569 100.695 10.3269 100.695 10.6359V13.4319H99.6464V10.0659C99.6464 9.65187 99.6344 9.20287 99.6094 8.71687H100.529L100.578 9.45387H100.607C100.73 9.22487 100.912 9.03587 101.15 8.88487C101.435 8.70887 101.752 8.61987 102.101 8.61987C102.54 8.61987 102.906 8.76187 103.197 9.04687C103.56 9.39587 103.74 9.91687 103.74 10.6089V13.4329Z" fill="white"/>
<path d="M110.793 9.50392H109.639V11.7939C109.639 12.3759 109.844 12.6669 110.25 12.6669C110.438 12.6669 110.594 12.6509 110.717 12.6179L110.744 13.4129C110.537 13.4909 110.265 13.5299 109.93 13.5299C109.516 13.5299 109.194 13.4039 108.961 13.1519C108.727 12.8999 108.611 12.4759 108.611 11.8809V9.50392H107.922V8.71892H108.611V7.85492L109.638 7.54492V8.71792H110.792L110.793 9.50392Z" fill="white"/>
<path d="M116.342 13.4329H115.293V10.7529C115.293 9.90791 114.977 9.48491 114.344 9.48491C113.858 9.48491 113.526 9.72991 113.344 10.2199C113.313 10.3229 113.295 10.4489 113.295 10.5969V13.4319H112.248V6.55591H113.295V9.39691H113.315C113.645 8.87991 114.118 8.62191 114.731 8.62191C115.165 8.62191 115.524 8.76391 115.809 9.04891C116.164 9.40391 116.342 9.93191 116.342 10.6299V13.4329Z" fill="white"/>
<path d="M122.064 10.853C122.064 11.041 122.05 11.199 122.025 11.328H118.882C118.896 11.794 119.046 12.149 119.337 12.395C119.603 12.615 119.946 12.725 120.366 12.725C120.831 12.725 121.255 12.651 121.637 12.502L121.801 13.23C121.354 13.424 120.828 13.521 120.219 13.521C119.489 13.521 118.914 13.306 118.498 12.876C118.08 12.446 117.873 11.869 117.873 11.145C117.873 10.434 118.066 9.84201 118.455 9.37001C118.861 8.86601 119.41 8.61401 120.103 8.61401C120.781 8.61401 121.296 8.86601 121.644 9.37001C121.925 9.77001 122.064 10.265 122.064 10.853ZM121.064 10.582C121.072 10.271 121.003 10.003 120.861 9.77701C120.679 9.48601 120.402 9.34001 120.027 9.34001C119.685 9.34001 119.406 9.48201 119.193 9.76701C119.019 9.99401 118.916 10.265 118.882 10.582H121.064Z" fill="white"/>
</g>
<defs>
<clipPath id="clip0_191_315">
<rect width="135" height="40" fill="white" transform="translate(0.857422)"/>
</clipPath>
</defs>
</svg>
