<svg width="64" height="44" viewBox="0 0 64 44" fill="none" xmlns="http://www.w3.org/2000/svg">
<path d="M63.9789 40.0326C64.2215 39.377 36.3644 18.3428 36.3644 18.3428C32.8769 15.7691 31.0426 15.7286 27.5939 18.3428C27.5939 18.3428 -0.222641 39.36 0.0114844 40.0067L0.00585938 40.0114C0.00873438 40.017 0.0133594 40.0209 0.0172344 40.026C0.253101 40.669 0.596254 41.2674 1.03211 41.7956C1.21623 42.0189 1.43811 42.2059 1.65148 42.4003L1.64111 42.4083C1.65811 42.4234 1.68073 42.4304 1.69773 42.4455C2.60211 43.2523 3.74261 43.7748 5.00961 43.9239C5.02948 43.9263 5.04548 43.9366 5.06536 43.939H5.14186C5.33448 43.9574 5.51761 44.0036 5.71486 44.0036H58.305C60.8946 44.0036 63.0886 42.3752 63.9601 40.0923C63.9705 40.0753 63.9865 40.063 63.996 40.0455L63.9789 40.0326Z" fill="#939CFF"/>
<path d="M32.017 15.9287L0.152344 39.8272V5.97108C0.152344 2.67108 2.82697 -0.00354004 6.12697 -0.00354004H57.907C61.207 -0.00354004 63.8816 2.67108 63.8816 5.97108V39.8272L32.017 15.9287Z" fill="#A9B0FF"/>
<path d="M0.523438 3.8938L27.7291 25.2624C31.1628 27.7963 32.9688 27.8363 36.3644 25.2624L63.5273 3.92768C63.0561 3.07343 62.3506 2.39855 61.5437 1.86042L61.9173 1.56768C61.0054 0.737551 59.8398 0.199425 58.5459 0.0604248L5.48906 0.0623007C4.19881 0.199426 3.03131 0.739426 2.12131 1.56768L2.49219 1.8568C1.69469 2.38743 0.995688 3.05067 0.523438 3.8938Z" fill="#EDECE6"/>
<path d="M0.514797 3.93856C0.275922 4.58419 27.7038 25.2942 27.7038 25.2942C31.1375 27.8281 32.9435 27.8681 36.3392 25.2942C36.3392 25.2942 63.727 4.60094 63.4964 3.96419L63.502 3.95956C63.4993 3.95394 63.4947 3.95031 63.4909 3.94519C63.2587 3.3121 62.9208 2.72296 62.4917 2.20281C62.3104 1.98294 62.0919 1.79894 61.8819 1.60744L61.8922 1.59956C61.8754 1.58469 61.8532 1.57769 61.8364 1.56281C60.9459 0.768562 59.823 0.254061 58.5757 0.107186C58.5562 0.104811 58.5403 0.0946869 58.5208 0.0923119H58.4455C58.2559 0.0741869 58.0755 0.0286865 57.8813 0.0286865H6.1013C3.55155 0.0286865 1.3913 1.63219 0.533422 3.87981C0.523172 3.89656 0.507422 3.90869 0.498047 3.92581L0.514797 3.93856Z" fill="#D8DBFB"/>
</svg>
