<svg width="127" height="126" viewBox="0 0 127 126" fill="none" xmlns="http://www.w3.org/2000/svg">
<g clip-path="url(#clip0_250_143)">
<path d="M2.31695 47.7931C3.51674 47.7931 4.48936 46.8205 4.48936 45.6207C4.48936 44.4209 3.51674 43.4483 2.31695 43.4483C1.11715 43.4483 0.144531 44.4209 0.144531 45.6207C0.144531 46.8205 1.11715 47.7931 2.31695 47.7931Z" fill="#010101"/>
<path d="M2.31695 56.4828C3.51674 56.4828 4.48936 55.5101 4.48936 54.3103C4.48936 53.1106 3.51674 52.1379 2.31695 52.1379C1.11715 52.1379 0.144531 53.1106 0.144531 54.3103C0.144531 55.5101 1.11715 56.4828 2.31695 56.4828Z" fill="#010101"/>
<path d="M2.31695 73.8621C3.51674 73.8621 4.48936 72.8895 4.48936 71.6897C4.48936 70.4899 3.51674 69.5172 2.31695 69.5172C1.11715 69.5172 0.144531 70.4899 0.144531 71.6897C0.144531 72.8895 1.11715 73.8621 2.31695 73.8621Z" fill="#010101"/>
<path d="M2.31695 82.5517C3.51674 82.5517 4.48936 81.5791 4.48936 80.3793C4.48936 79.1795 3.51674 78.2069 2.31695 78.2069C1.11715 78.2069 0.144531 79.1795 0.144531 80.3793C0.144531 81.5791 1.11715 82.5517 2.31695 82.5517Z" fill="#010101"/>
<path d="M2.31695 86.8966C3.51674 86.8966 4.48936 85.9239 4.48936 84.7241C4.48936 83.5243 3.51674 82.5517 2.31695 82.5517C1.11715 82.5517 0.144531 83.5243 0.144531 84.7241C0.144531 85.9239 1.11715 86.8966 2.31695 86.8966Z" fill="#010101"/>
<path d="M6.66177 69.5172C7.86156 69.5172 8.83419 68.5446 8.83419 67.3448C8.83419 66.145 7.86156 65.1724 6.66177 65.1724C5.46198 65.1724 4.48936 66.145 4.48936 67.3448C4.48936 68.5446 5.46198 69.5172 6.66177 69.5172Z" fill="#010101"/>
<path d="M6.66177 82.5517C7.86156 82.5517 8.83419 81.5791 8.83419 80.3793C8.83419 79.1795 7.86156 78.2069 6.66177 78.2069C5.46198 78.2069 4.48936 79.1795 4.48936 80.3793C4.48936 81.5791 5.46198 82.5517 6.66177 82.5517Z" fill="#010101"/>
<path d="M6.66177 86.8966C7.86156 86.8966 8.83419 85.9239 8.83419 84.7241C8.83419 83.5243 7.86156 82.5517 6.66177 82.5517C5.46198 82.5517 4.48936 83.5243 4.48936 84.7241C4.48936 85.9239 5.46198 86.8966 6.66177 86.8966Z" fill="#010101"/>
<path d="M11.0066 43.4483C12.2064 43.4483 13.179 42.4757 13.179 41.2759C13.179 40.0761 12.2064 39.1035 11.0066 39.1035C9.80681 39.1035 8.83419 40.0761 8.83419 41.2759C8.83419 42.4757 9.80681 43.4483 11.0066 43.4483Z" fill="#010101"/>
<path d="M11.0066 47.7931C12.2064 47.7931 13.179 46.8205 13.179 45.6207C13.179 44.4209 12.2064 43.4483 11.0066 43.4483C9.80681 43.4483 8.83419 44.4209 8.83419 45.6207C8.83419 46.8205 9.80681 47.7931 11.0066 47.7931Z" fill="#010101"/>
<path d="M11.0066 52.1379C12.2064 52.1379 13.179 51.1653 13.179 49.9655C13.179 48.7657 12.2064 47.7931 11.0066 47.7931C9.80681 47.7931 8.83419 48.7657 8.83419 49.9655C8.83419 51.1653 9.80681 52.1379 11.0066 52.1379Z" fill="#010101"/>
<path d="M11.0066 56.4828C12.2064 56.4828 13.179 55.5101 13.179 54.3103C13.179 53.1106 12.2064 52.1379 11.0066 52.1379C9.80681 52.1379 8.83419 53.1106 8.83419 54.3103C8.83419 55.5101 9.80681 56.4828 11.0066 56.4828Z" fill="#010101"/>
<path d="M11.0066 60.8276C12.2064 60.8276 13.179 59.855 13.179 58.6552C13.179 57.4554 12.2064 56.4828 11.0066 56.4828C9.80681 56.4828 8.83419 57.4554 8.83419 58.6552C8.83419 59.855 9.80681 60.8276 11.0066 60.8276Z" fill="#010101"/>
<path d="M11.0066 65.1724C12.2064 65.1724 13.179 64.1998 13.179 63C13.179 61.8002 12.2064 60.8276 11.0066 60.8276C9.80681 60.8276 8.83419 61.8002 8.83419 63C8.83419 64.1998 9.80681 65.1724 11.0066 65.1724Z" fill="#010101"/>
<path d="M11.0066 73.8621C12.2064 73.8621 13.179 72.8895 13.179 71.6897C13.179 70.4899 12.2064 69.5172 11.0066 69.5172C9.80681 69.5172 8.83419 70.4899 8.83419 71.6897C8.83419 72.8895 9.80681 73.8621 11.0066 73.8621Z" fill="#010101"/>
<path d="M11.0066 78.2069C12.2064 78.2069 13.179 77.2343 13.179 76.0345C13.179 74.8347 12.2064 73.8621 11.0066 73.8621C9.80681 73.8621 8.83419 74.8347 8.83419 76.0345C8.83419 77.2343 9.80681 78.2069 11.0066 78.2069Z" fill="#010101"/>
<path d="M15.3514 39.1035C16.5512 39.1035 17.5238 38.1308 17.5238 36.931C17.5238 35.7312 16.5512 34.7586 15.3514 34.7586C14.1516 34.7586 13.179 35.7312 13.179 36.931C13.179 38.1308 14.1516 39.1035 15.3514 39.1035Z" fill="#010101"/>
<path d="M15.3514 43.4483C16.5512 43.4483 17.5238 42.4757 17.5238 41.2759C17.5238 40.0761 16.5512 39.1035 15.3514 39.1035C14.1516 39.1035 13.179 40.0761 13.179 41.2759C13.179 42.4757 14.1516 43.4483 15.3514 43.4483Z" fill="#010101"/>
<path d="M15.3514 47.7931C16.5512 47.7931 17.5238 46.8205 17.5238 45.6207C17.5238 44.4209 16.5512 43.4483 15.3514 43.4483C14.1516 43.4483 13.179 44.4209 13.179 45.6207C13.179 46.8205 14.1516 47.7931 15.3514 47.7931Z" fill="#010101"/>
<path d="M15.3514 73.8621C16.5512 73.8621 17.5238 72.8895 17.5238 71.6897C17.5238 70.4899 16.5512 69.5172 15.3514 69.5172C14.1516 69.5172 13.179 70.4899 13.179 71.6897C13.179 72.8895 14.1516 73.8621 15.3514 73.8621Z" fill="#010101"/>
<path d="M15.3514 78.2069C16.5512 78.2069 17.5238 77.2343 17.5238 76.0345C17.5238 74.8347 16.5512 73.8621 15.3514 73.8621C14.1516 73.8621 13.179 74.8347 13.179 76.0345C13.179 77.2343 14.1516 78.2069 15.3514 78.2069Z" fill="#010101"/>
<path d="M15.3514 82.5517C16.5512 82.5517 17.5238 81.5791 17.5238 80.3793C17.5238 79.1795 16.5512 78.2069 15.3514 78.2069C14.1516 78.2069 13.179 79.1795 13.179 80.3793C13.179 81.5791 14.1516 82.5517 15.3514 82.5517Z" fill="#010101"/>
<path d="M15.3514 86.8966C16.5512 86.8966 17.5238 85.9239 17.5238 84.7241C17.5238 83.5243 16.5512 82.5517 15.3514 82.5517C14.1516 82.5517 13.179 83.5243 13.179 84.7241C13.179 85.9239 14.1516 86.8966 15.3514 86.8966Z" fill="#010101"/>
<path d="M19.6963 43.4483C20.896 43.4483 21.8687 42.4757 21.8687 41.2759C21.8687 40.0761 20.896 39.1035 19.6963 39.1035C18.4965 39.1035 17.5238 40.0761 17.5238 41.2759C17.5238 42.4757 18.4965 43.4483 19.6963 43.4483Z" fill="#010101"/>
<path d="M19.6963 52.1379C20.896 52.1379 21.8687 51.1653 21.8687 49.9655C21.8687 48.7657 20.896 47.7931 19.6963 47.7931C18.4965 47.7931 17.5238 48.7657 17.5238 49.9655C17.5238 51.1653 18.4965 52.1379 19.6963 52.1379Z" fill="#010101"/>
<path d="M19.6963 69.5172C20.896 69.5172 21.8687 68.5446 21.8687 67.3448C21.8687 66.145 20.896 65.1724 19.6963 65.1724C18.4965 65.1724 17.5238 66.145 17.5238 67.3448C17.5238 68.5446 18.4965 69.5172 19.6963 69.5172Z" fill="#010101"/>
<path d="M19.6963 78.2069C20.896 78.2069 21.8687 77.2343 21.8687 76.0345C21.8687 74.8347 20.896 73.8621 19.6963 73.8621C18.4965 73.8621 17.5238 74.8347 17.5238 76.0345C17.5238 77.2343 18.4965 78.2069 19.6963 78.2069Z" fill="#010101"/>
<path d="M19.6963 91.2414C20.896 91.2414 21.8687 90.2688 21.8687 89.069C21.8687 87.8692 20.896 86.8966 19.6963 86.8966C18.4965 86.8966 17.5238 87.8692 17.5238 89.069C17.5238 90.2688 18.4965 91.2414 19.6963 91.2414Z" fill="#010101"/>
<path d="M24.0411 39.1035C25.2409 39.1035 26.2135 38.1308 26.2135 36.931C26.2135 35.7312 25.2409 34.7586 24.0411 34.7586C22.8413 34.7586 21.8687 35.7312 21.8687 36.931C21.8687 38.1308 22.8413 39.1035 24.0411 39.1035Z" fill="#010101"/>
<path d="M24.0411 43.4483C25.2409 43.4483 26.2135 42.4757 26.2135 41.2759C26.2135 40.0761 25.2409 39.1035 24.0411 39.1035C22.8413 39.1035 21.8687 40.0761 21.8687 41.2759C21.8687 42.4757 22.8413 43.4483 24.0411 43.4483Z" fill="#010101"/>
<path d="M24.0411 73.8621C25.2409 73.8621 26.2135 72.8895 26.2135 71.6897C26.2135 70.4899 25.2409 69.5172 24.0411 69.5172C22.8413 69.5172 21.8687 70.4899 21.8687 71.6897C21.8687 72.8895 22.8413 73.8621 24.0411 73.8621Z" fill="#010101"/>
<path d="M24.0411 91.2414C25.2409 91.2414 26.2135 90.2688 26.2135 89.069C26.2135 87.8692 25.2409 86.8966 24.0411 86.8966C22.8413 86.8966 21.8687 87.8692 21.8687 89.069C21.8687 90.2688 22.8413 91.2414 24.0411 91.2414Z" fill="#010101"/>
<path d="M28.3859 39.1035C29.5857 39.1035 30.5583 38.1308 30.5583 36.931C30.5583 35.7312 29.5857 34.7586 28.3859 34.7586C27.1861 34.7586 26.2135 35.7312 26.2135 36.931C26.2135 38.1308 27.1861 39.1035 28.3859 39.1035Z" fill="#010101"/>
<path d="M28.3859 47.7931C29.5857 47.7931 30.5583 46.8205 30.5583 45.6207C30.5583 44.4209 29.5857 43.4483 28.3859 43.4483C27.1861 43.4483 26.2135 44.4209 26.2135 45.6207C26.2135 46.8205 27.1861 47.7931 28.3859 47.7931Z" fill="#010101"/>
<path d="M28.3859 56.4828C29.5857 56.4828 30.5583 55.5101 30.5583 54.3103C30.5583 53.1106 29.5857 52.1379 28.3859 52.1379C27.1861 52.1379 26.2135 53.1106 26.2135 54.3103C26.2135 55.5101 27.1861 56.4828 28.3859 56.4828Z" fill="#010101"/>
<path d="M28.3859 65.1724C29.5857 65.1724 30.5583 64.1998 30.5583 63C30.5583 61.8002 29.5857 60.8276 28.3859 60.8276C27.1861 60.8276 26.2135 61.8002 26.2135 63C26.2135 64.1998 27.1861 65.1724 28.3859 65.1724Z" fill="#010101"/>
<path d="M28.3859 73.8621C29.5857 73.8621 30.5583 72.8895 30.5583 71.6897C30.5583 70.4899 29.5857 69.5172 28.3859 69.5172C27.1861 69.5172 26.2135 70.4899 26.2135 71.6897C26.2135 72.8895 27.1861 73.8621 28.3859 73.8621Z" fill="#010101"/>
<path d="M28.3859 82.5517C29.5857 82.5517 30.5583 81.5791 30.5583 80.3793C30.5583 79.1795 29.5857 78.2069 28.3859 78.2069C27.1861 78.2069 26.2135 79.1795 26.2135 80.3793C26.2135 81.5791 27.1861 82.5517 28.3859 82.5517Z" fill="#010101"/>
<path d="M28.3859 91.2414C29.5857 91.2414 30.5583 90.2688 30.5583 89.069C30.5583 87.8692 29.5857 86.8966 28.3859 86.8966C27.1861 86.8966 26.2135 87.8692 26.2135 89.069C26.2135 90.2688 27.1861 91.2414 28.3859 91.2414Z" fill="#010101"/>
<path d="M32.7307 39.1035C33.9305 39.1035 34.9032 38.1308 34.9032 36.931C34.9032 35.7312 33.9305 34.7586 32.7307 34.7586C31.5309 34.7586 30.5583 35.7312 30.5583 36.931C30.5583 38.1308 31.5309 39.1035 32.7307 39.1035Z" fill="#010101"/>
<path d="M32.7307 43.4483C33.9305 43.4483 34.9032 42.4757 34.9032 41.2759C34.9032 40.0761 33.9305 39.1035 32.7307 39.1035C31.5309 39.1035 30.5583 40.0761 30.5583 41.2759C30.5583 42.4757 31.5309 43.4483 32.7307 43.4483Z" fill="#010101"/>
<path d="M32.7307 52.1379C33.9305 52.1379 34.9032 51.1653 34.9032 49.9655C34.9032 48.7657 33.9305 47.7931 32.7307 47.7931C31.5309 47.7931 30.5583 48.7657 30.5583 49.9655C30.5583 51.1653 31.5309 52.1379 32.7307 52.1379Z" fill="#010101"/>
<path d="M32.7307 56.4828C33.9305 56.4828 34.9032 55.5101 34.9032 54.3103C34.9032 53.1106 33.9305 52.1379 32.7307 52.1379C31.5309 52.1379 30.5583 53.1106 30.5583 54.3103C30.5583 55.5101 31.5309 56.4828 32.7307 56.4828Z" fill="#010101"/>
<path d="M32.7307 60.8276C33.9305 60.8276 34.9032 59.855 34.9032 58.6552C34.9032 57.4554 33.9305 56.4828 32.7307 56.4828C31.5309 56.4828 30.5583 57.4554 30.5583 58.6552C30.5583 59.855 31.5309 60.8276 32.7307 60.8276Z" fill="#010101"/>
<path d="M32.7307 65.1724C33.9305 65.1724 34.9032 64.1998 34.9032 63C34.9032 61.8002 33.9305 60.8276 32.7307 60.8276C31.5309 60.8276 30.5583 61.8002 30.5583 63C30.5583 64.1998 31.5309 65.1724 32.7307 65.1724Z" fill="#010101"/>
<path d="M32.7307 69.5172C33.9305 69.5172 34.9032 68.5446 34.9032 67.3448C34.9032 66.145 33.9305 65.1724 32.7307 65.1724C31.5309 65.1724 30.5583 66.145 30.5583 67.3448C30.5583 68.5446 31.5309 69.5172 32.7307 69.5172Z" fill="#010101"/>
<path d="M32.7307 73.8621C33.9305 73.8621 34.9032 72.8895 34.9032 71.6897C34.9032 70.4899 33.9305 69.5172 32.7307 69.5172C31.5309 69.5172 30.5583 70.4899 30.5583 71.6897C30.5583 72.8895 31.5309 73.8621 32.7307 73.8621Z" fill="#010101"/>
<path d="M32.7307 82.5517C33.9305 82.5517 34.9032 81.5791 34.9032 80.3793C34.9032 79.1795 33.9305 78.2069 32.7307 78.2069C31.5309 78.2069 30.5583 79.1795 30.5583 80.3793C30.5583 81.5791 31.5309 82.5517 32.7307 82.5517Z" fill="#010101"/>
<path d="M32.7307 91.2414C33.9305 91.2414 34.9032 90.2688 34.9032 89.069C34.9032 87.8692 33.9305 86.8966 32.7307 86.8966C31.5309 86.8966 30.5583 87.8692 30.5583 89.069C30.5583 90.2688 31.5309 91.2414 32.7307 91.2414Z" fill="#010101"/>
<path d="M37.0756 8.68966C38.2754 8.68966 39.248 7.71703 39.248 6.51724C39.248 5.31745 38.2754 4.34483 37.0756 4.34483C35.8758 4.34483 34.9032 5.31745 34.9032 6.51724C34.9032 7.71703 35.8758 8.68966 37.0756 8.68966Z" fill="#010101"/>
<path d="M37.0756 13.0345C38.2754 13.0345 39.248 12.0619 39.248 10.8621C39.248 9.66228 38.2754 8.68966 37.0756 8.68966C35.8758 8.68966 34.9032 9.66228 34.9032 10.8621C34.9032 12.0619 35.8758 13.0345 37.0756 13.0345Z" fill="#010101"/>
<path d="M37.0756 30.4138C38.2754 30.4138 39.248 29.4412 39.248 28.2414C39.248 27.0416 38.2754 26.069 37.0756 26.069C35.8758 26.069 34.9032 27.0416 34.9032 28.2414C34.9032 29.4412 35.8758 30.4138 37.0756 30.4138Z" fill="#010101"/>
<path d="M37.0756 47.7931C38.2754 47.7931 39.248 46.8205 39.248 45.6207C39.248 44.4209 38.2754 43.4483 37.0756 43.4483C35.8758 43.4483 34.9032 44.4209 34.9032 45.6207C34.9032 46.8205 35.8758 47.7931 37.0756 47.7931Z" fill="#010101"/>
<path d="M37.0756 52.1379C38.2754 52.1379 39.248 51.1653 39.248 49.9655C39.248 48.7657 38.2754 47.7931 37.0756 47.7931C35.8758 47.7931 34.9032 48.7657 34.9032 49.9655C34.9032 51.1653 35.8758 52.1379 37.0756 52.1379Z" fill="#010101"/>
<path d="M37.0756 56.4828C38.2754 56.4828 39.248 55.5101 39.248 54.3103C39.248 53.1106 38.2754 52.1379 37.0756 52.1379C35.8758 52.1379 34.9032 53.1106 34.9032 54.3103C34.9032 55.5101 35.8758 56.4828 37.0756 56.4828Z" fill="#010101"/>
<path d="M37.0756 69.5172C38.2754 69.5172 39.248 68.5446 39.248 67.3448C39.248 66.145 38.2754 65.1724 37.0756 65.1724C35.8758 65.1724 34.9032 66.145 34.9032 67.3448C34.9032 68.5446 35.8758 69.5172 37.0756 69.5172Z" fill="#010101"/>
<path d="M37.0756 78.2069C38.2754 78.2069 39.248 77.2343 39.248 76.0345C39.248 74.8347 38.2754 73.8621 37.0756 73.8621C35.8758 73.8621 34.9032 74.8347 34.9032 76.0345C34.9032 77.2343 35.8758 78.2069 37.0756 78.2069Z" fill="#010101"/>
<path d="M37.0756 82.5517C38.2754 82.5517 39.248 81.5791 39.248 80.3793C39.248 79.1795 38.2754 78.2069 37.0756 78.2069C35.8758 78.2069 34.9032 79.1795 34.9032 80.3793C34.9032 81.5791 35.8758 82.5517 37.0756 82.5517Z" fill="#010101"/>
<path d="M37.0756 86.8966C38.2754 86.8966 39.248 85.9239 39.248 84.7241C39.248 83.5243 38.2754 82.5517 37.0756 82.5517C35.8758 82.5517 34.9032 83.5243 34.9032 84.7241C34.9032 85.9239 35.8758 86.8966 37.0756 86.8966Z" fill="#010101"/>
<path d="M37.0756 91.2414C38.2754 91.2414 39.248 90.2688 39.248 89.069C39.248 87.8692 38.2754 86.8966 37.0756 86.8966C35.8758 86.8966 34.9032 87.8692 34.9032 89.069C34.9032 90.2688 35.8758 91.2414 37.0756 91.2414Z" fill="#010101"/>
<path d="M37.0756 99.931C38.2754 99.931 39.248 98.9584 39.248 97.7586C39.248 96.5588 38.2754 95.5862 37.0756 95.5862C35.8758 95.5862 34.9032 96.5588 34.9032 97.7586C34.9032 98.9584 35.8758 99.931 37.0756 99.931Z" fill="#010101"/>
<path d="M37.0756 104.276C38.2754 104.276 39.248 103.303 39.248 102.103C39.248 100.904 38.2754 99.931 37.0756 99.931C35.8758 99.931 34.9032 100.904 34.9032 102.103C34.9032 103.303 35.8758 104.276 37.0756 104.276Z" fill="#010101"/>
<path d="M37.0756 112.966C38.2754 112.966 39.248 111.993 39.248 110.793C39.248 109.593 38.2754 108.621 37.0756 108.621C35.8758 108.621 34.9032 109.593 34.9032 110.793C34.9032 111.993 35.8758 112.966 37.0756 112.966Z" fill="#010101"/>
<path d="M41.4204 4.34483C42.6202 4.34483 43.5928 3.3722 43.5928 2.17241C43.5928 0.972623 42.6202 0 41.4204 0C40.2206 0 39.248 0.972623 39.248 2.17241C39.248 3.3722 40.2206 4.34483 41.4204 4.34483Z" fill="#010101"/>
<path d="M41.4204 8.68966C42.6202 8.68966 43.5928 7.71703 43.5928 6.51724C43.5928 5.31745 42.6202 4.34483 41.4204 4.34483C40.2206 4.34483 39.248 5.31745 39.248 6.51724C39.248 7.71703 40.2206 8.68966 41.4204 8.68966Z" fill="#010101"/>
<path d="M41.4204 21.7241C42.6202 21.7241 43.5928 20.7515 43.5928 19.5517C43.5928 18.3519 42.6202 17.3793 41.4204 17.3793C40.2206 17.3793 39.248 18.3519 39.248 19.5517C39.248 20.7515 40.2206 21.7241 41.4204 21.7241Z" fill="#010101"/>
<path d="M41.4204 26.069C42.6202 26.069 43.5928 25.0963 43.5928 23.8966C43.5928 22.6968 42.6202 21.7241 41.4204 21.7241C40.2206 21.7241 39.248 22.6968 39.248 23.8966C39.248 25.0963 40.2206 26.069 41.4204 26.069Z" fill="#010101"/>
<path d="M41.4204 43.4483C42.6202 43.4483 43.5928 42.4757 43.5928 41.2759C43.5928 40.0761 42.6202 39.1035 41.4204 39.1035C40.2206 39.1035 39.248 40.0761 39.248 41.2759C39.248 42.4757 40.2206 43.4483 41.4204 43.4483Z" fill="#010101"/>
<path d="M41.4204 56.4828C42.6202 56.4828 43.5928 55.5101 43.5928 54.3103C43.5928 53.1106 42.6202 52.1379 41.4204 52.1379C40.2206 52.1379 39.248 53.1106 39.248 54.3103C39.248 55.5101 40.2206 56.4828 41.4204 56.4828Z" fill="#010101"/>
<path d="M41.4204 69.5172C42.6202 69.5172 43.5928 68.5446 43.5928 67.3448C43.5928 66.145 42.6202 65.1724 41.4204 65.1724C40.2206 65.1724 39.248 66.145 39.248 67.3448C39.248 68.5446 40.2206 69.5172 41.4204 69.5172Z" fill="#010101"/>
<path d="M41.4204 82.5517C42.6202 82.5517 43.5928 81.5791 43.5928 80.3793C43.5928 79.1795 42.6202 78.2069 41.4204 78.2069C40.2206 78.2069 39.248 79.1795 39.248 80.3793C39.248 81.5791 40.2206 82.5517 41.4204 82.5517Z" fill="#010101"/>
<path d="M41.4204 99.931C42.6202 99.931 43.5928 98.9584 43.5928 97.7586C43.5928 96.5588 42.6202 95.5862 41.4204 95.5862C40.2206 95.5862 39.248 96.5588 39.248 97.7586C39.248 98.9584 40.2206 99.931 41.4204 99.931Z" fill="#010101"/>
<path d="M41.4204 104.276C42.6202 104.276 43.5928 103.303 43.5928 102.103C43.5928 100.904 42.6202 99.931 41.4204 99.931C40.2206 99.931 39.248 100.904 39.248 102.103C39.248 103.303 40.2206 104.276 41.4204 104.276Z" fill="#010101"/>
<path d="M41.4204 112.966C42.6202 112.966 43.5928 111.993 43.5928 110.793C43.5928 109.593 42.6202 108.621 41.4204 108.621C40.2206 108.621 39.248 109.593 39.248 110.793C39.248 111.993 40.2206 112.966 41.4204 112.966Z" fill="#010101"/>
<path d="M41.4204 117.31C42.6202 117.31 43.5928 116.338 43.5928 115.138C43.5928 113.938 42.6202 112.966 41.4204 112.966C40.2206 112.966 39.248 113.938 39.248 115.138C39.248 116.338 40.2206 117.31 41.4204 117.31Z" fill="#010101"/>
<path d="M41.4204 121.655C42.6202 121.655 43.5928 120.683 43.5928 119.483C43.5928 118.283 42.6202 117.31 41.4204 117.31C40.2206 117.31 39.248 118.283 39.248 119.483C39.248 120.683 40.2206 121.655 41.4204 121.655Z" fill="#010101"/>
<path d="M41.4204 126C42.6202 126 43.5928 125.027 43.5928 123.828C43.5928 122.628 42.6202 121.655 41.4204 121.655C40.2206 121.655 39.248 122.628 39.248 123.828C39.248 125.027 40.2206 126 41.4204 126Z" fill="#010101"/>
<path d="M45.7652 13.0345C46.965 13.0345 47.9376 12.0619 47.9376 10.8621C47.9376 9.66228 46.965 8.68966 45.7652 8.68966C44.5654 8.68966 43.5928 9.66228 43.5928 10.8621C43.5928 12.0619 44.5654 13.0345 45.7652 13.0345Z" fill="#010101"/>
<path d="M45.7652 21.7241C46.965 21.7241 47.9376 20.7515 47.9376 19.5517C47.9376 18.3519 46.965 17.3793 45.7652 17.3793C44.5654 17.3793 43.5928 18.3519 43.5928 19.5517C43.5928 20.7515 44.5654 21.7241 45.7652 21.7241Z" fill="#010101"/>
<path d="M45.7652 30.4138C46.965 30.4138 47.9376 29.4412 47.9376 28.2414C47.9376 27.0416 46.965 26.069 45.7652 26.069C44.5654 26.069 43.5928 27.0416 43.5928 28.2414C43.5928 29.4412 44.5654 30.4138 45.7652 30.4138Z" fill="#010101"/>
<path d="M45.7652 34.7586C46.965 34.7586 47.9376 33.786 47.9376 32.5862C47.9376 31.3864 46.965 30.4138 45.7652 30.4138C44.5654 30.4138 43.5928 31.3864 43.5928 32.5862C43.5928 33.786 44.5654 34.7586 45.7652 34.7586Z" fill="#010101"/>
<path d="M45.7652 43.4483C46.965 43.4483 47.9376 42.4757 47.9376 41.2759C47.9376 40.0761 46.965 39.1035 45.7652 39.1035C44.5654 39.1035 43.5928 40.0761 43.5928 41.2759C43.5928 42.4757 44.5654 43.4483 45.7652 43.4483Z" fill="#010101"/>
<path d="M45.7652 52.1379C46.965 52.1379 47.9376 51.1653 47.9376 49.9655C47.9376 48.7657 46.965 47.7931 45.7652 47.7931C44.5654 47.7931 43.5928 48.7657 43.5928 49.9655C43.5928 51.1653 44.5654 52.1379 45.7652 52.1379Z" fill="#010101"/>
<path d="M45.7652 56.4828C46.965 56.4828 47.9376 55.5101 47.9376 54.3103C47.9376 53.1106 46.965 52.1379 45.7652 52.1379C44.5654 52.1379 43.5928 53.1106 43.5928 54.3103C43.5928 55.5101 44.5654 56.4828 45.7652 56.4828Z" fill="#010101"/>
<path d="M45.7652 69.5172C46.965 69.5172 47.9376 68.5446 47.9376 67.3448C47.9376 66.145 46.965 65.1724 45.7652 65.1724C44.5654 65.1724 43.5928 66.145 43.5928 67.3448C43.5928 68.5446 44.5654 69.5172 45.7652 69.5172Z" fill="#010101"/>
<path d="M45.7652 73.8621C46.965 73.8621 47.9376 72.8895 47.9376 71.6897C47.9376 70.4899 46.965 69.5172 45.7652 69.5172C44.5654 69.5172 43.5928 70.4899 43.5928 71.6897C43.5928 72.8895 44.5654 73.8621 45.7652 73.8621Z" fill="#010101"/>
<path d="M45.7652 78.2069C46.965 78.2069 47.9376 77.2343 47.9376 76.0345C47.9376 74.8347 46.965 73.8621 45.7652 73.8621C44.5654 73.8621 43.5928 74.8347 43.5928 76.0345C43.5928 77.2343 44.5654 78.2069 45.7652 78.2069Z" fill="#010101"/>
<path d="M45.7652 82.5517C46.965 82.5517 47.9376 81.5791 47.9376 80.3793C47.9376 79.1795 46.965 78.2069 45.7652 78.2069C44.5654 78.2069 43.5928 79.1795 43.5928 80.3793C43.5928 81.5791 44.5654 82.5517 45.7652 82.5517Z" fill="#010101"/>
<path d="M45.7652 86.8966C46.965 86.8966 47.9376 85.9239 47.9376 84.7241C47.9376 83.5243 46.965 82.5517 45.7652 82.5517C44.5654 82.5517 43.5928 83.5243 43.5928 84.7241C43.5928 85.9239 44.5654 86.8966 45.7652 86.8966Z" fill="#010101"/>
<path d="M45.7652 95.5862C46.965 95.5862 47.9376 94.6136 47.9376 93.4138C47.9376 92.214 46.965 91.2414 45.7652 91.2414C44.5654 91.2414 43.5928 92.214 43.5928 93.4138C43.5928 94.6136 44.5654 95.5862 45.7652 95.5862Z" fill="#010101"/>
<path d="M45.7652 108.621C46.965 108.621 47.9376 107.648 47.9376 106.448C47.9376 105.248 46.965 104.276 45.7652 104.276C44.5654 104.276 43.5928 105.248 43.5928 106.448C43.5928 107.648 44.5654 108.621 45.7652 108.621Z" fill="#010101"/>
<path d="M45.7652 126C46.965 126 47.9376 125.027 47.9376 123.828C47.9376 122.628 46.965 121.655 45.7652 121.655C44.5654 121.655 43.5928 122.628 43.5928 123.828C43.5928 125.027 44.5654 126 45.7652 126Z" fill="#010101"/>
<path d="M50.1101 8.68966C51.3098 8.68966 52.2825 7.71703 52.2825 6.51724C52.2825 5.31745 51.3098 4.34483 50.1101 4.34483C48.9103 4.34483 47.9376 5.31745 47.9376 6.51724C47.9376 7.71703 48.9103 8.68966 50.1101 8.68966Z" fill="#010101"/>
<path d="M50.1101 13.0345C51.3098 13.0345 52.2825 12.0619 52.2825 10.8621C52.2825 9.66228 51.3098 8.68966 50.1101 8.68966C48.9103 8.68966 47.9376 9.66228 47.9376 10.8621C47.9376 12.0619 48.9103 13.0345 50.1101 13.0345Z" fill="#010101"/>
<path d="M50.1101 39.1035C51.3098 39.1035 52.2825 38.1308 52.2825 36.931C52.2825 35.7312 51.3098 34.7586 50.1101 34.7586C48.9103 34.7586 47.9376 35.7312 47.9376 36.931C47.9376 38.1308 48.9103 39.1035 50.1101 39.1035Z" fill="#010101"/>
<path d="M50.1101 47.7931C51.3098 47.7931 52.2825 46.8205 52.2825 45.6207C52.2825 44.4209 51.3098 43.4483 50.1101 43.4483C48.9103 43.4483 47.9376 44.4209 47.9376 45.6207C47.9376 46.8205 48.9103 47.7931 50.1101 47.7931Z" fill="#010101"/>
<path d="M50.1101 52.1379C51.3098 52.1379 52.2825 51.1653 52.2825 49.9655C52.2825 48.7657 51.3098 47.7931 50.1101 47.7931C48.9103 47.7931 47.9376 48.7657 47.9376 49.9655C47.9376 51.1653 48.9103 52.1379 50.1101 52.1379Z" fill="#010101"/>
<path d="M50.1101 60.8276C51.3098 60.8276 52.2825 59.855 52.2825 58.6552C52.2825 57.4554 51.3098 56.4828 50.1101 56.4828C48.9103 56.4828 47.9376 57.4554 47.9376 58.6552C47.9376 59.855 48.9103 60.8276 50.1101 60.8276Z" fill="#010101"/>
<path d="M50.1101 69.5172C51.3098 69.5172 52.2825 68.5446 52.2825 67.3448C52.2825 66.145 51.3098 65.1724 50.1101 65.1724C48.9103 65.1724 47.9376 66.145 47.9376 67.3448C47.9376 68.5446 48.9103 69.5172 50.1101 69.5172Z" fill="#010101"/>
<path d="M50.1101 73.8621C51.3098 73.8621 52.2825 72.8895 52.2825 71.6897C52.2825 70.4899 51.3098 69.5172 50.1101 69.5172C48.9103 69.5172 47.9376 70.4899 47.9376 71.6897C47.9376 72.8895 48.9103 73.8621 50.1101 73.8621Z" fill="#010101"/>
<path d="M50.1101 82.5517C51.3098 82.5517 52.2825 81.5791 52.2825 80.3793C52.2825 79.1795 51.3098 78.2069 50.1101 78.2069C48.9103 78.2069 47.9376 79.1795 47.9376 80.3793C47.9376 81.5791 48.9103 82.5517 50.1101 82.5517Z" fill="#010101"/>
<path d="M50.1101 99.931C51.3098 99.931 52.2825 98.9584 52.2825 97.7586C52.2825 96.5588 51.3098 95.5862 50.1101 95.5862C48.9103 95.5862 47.9376 96.5588 47.9376 97.7586C47.9376 98.9584 48.9103 99.931 50.1101 99.931Z" fill="#010101"/>
<path d="M50.1101 104.276C51.3098 104.276 52.2825 103.303 52.2825 102.103C52.2825 100.904 51.3098 99.931 50.1101 99.931C48.9103 99.931 47.9376 100.904 47.9376 102.103C47.9376 103.303 48.9103 104.276 50.1101 104.276Z" fill="#010101"/>
<path d="M50.1101 112.966C51.3098 112.966 52.2825 111.993 52.2825 110.793C52.2825 109.593 51.3098 108.621 50.1101 108.621C48.9103 108.621 47.9376 109.593 47.9376 110.793C47.9376 111.993 48.9103 112.966 50.1101 112.966Z" fill="#010101"/>
<path d="M54.4549 13.0345C55.6547 13.0345 56.6273 12.0619 56.6273 10.8621C56.6273 9.66228 55.6547 8.68966 54.4549 8.68966C53.2551 8.68966 52.2825 9.66228 52.2825 10.8621C52.2825 12.0619 53.2551 13.0345 54.4549 13.0345Z" fill="#010101"/>
<path d="M54.4549 17.3793C55.6547 17.3793 56.6273 16.4067 56.6273 15.2069C56.6273 14.0071 55.6547 13.0345 54.4549 13.0345C53.2551 13.0345 52.2825 14.0071 52.2825 15.2069C52.2825 16.4067 53.2551 17.3793 54.4549 17.3793Z" fill="#010101"/>
<path d="M54.4549 26.069C55.6547 26.069 56.6273 25.0963 56.6273 23.8966C56.6273 22.6968 55.6547 21.7241 54.4549 21.7241C53.2551 21.7241 52.2825 22.6968 52.2825 23.8966C52.2825 25.0963 53.2551 26.069 54.4549 26.069Z" fill="#010101"/>
<path d="M54.4549 30.4138C55.6547 30.4138 56.6273 29.4412 56.6273 28.2414C56.6273 27.0416 55.6547 26.069 54.4549 26.069C53.2551 26.069 52.2825 27.0416 52.2825 28.2414C52.2825 29.4412 53.2551 30.4138 54.4549 30.4138Z" fill="#010101"/>
<path d="M54.4549 39.1035C55.6547 39.1035 56.6273 38.1308 56.6273 36.931C56.6273 35.7312 55.6547 34.7586 54.4549 34.7586C53.2551 34.7586 52.2825 35.7312 52.2825 36.931C52.2825 38.1308 53.2551 39.1035 54.4549 39.1035Z" fill="#010101"/>
<path d="M54.4549 43.4483C55.6547 43.4483 56.6273 42.4757 56.6273 41.2759C56.6273 40.0761 55.6547 39.1035 54.4549 39.1035C53.2551 39.1035 52.2825 40.0761 52.2825 41.2759C52.2825 42.4757 53.2551 43.4483 54.4549 43.4483Z" fill="#010101"/>
<path d="M54.4549 47.7931C55.6547 47.7931 56.6273 46.8205 56.6273 45.6207C56.6273 44.4209 55.6547 43.4483 54.4549 43.4483C53.2551 43.4483 52.2825 44.4209 52.2825 45.6207C52.2825 46.8205 53.2551 47.7931 54.4549 47.7931Z" fill="#010101"/>
<path d="M54.4549 60.8276C55.6547 60.8276 56.6273 59.855 56.6273 58.6552C56.6273 57.4554 55.6547 56.4828 54.4549 56.4828C53.2551 56.4828 52.2825 57.4554 52.2825 58.6552C52.2825 59.855 53.2551 60.8276 54.4549 60.8276Z" fill="#010101"/>
<path d="M54.4549 65.1724C55.6547 65.1724 56.6273 64.1998 56.6273 63C56.6273 61.8002 55.6547 60.8276 54.4549 60.8276C53.2551 60.8276 52.2825 61.8002 52.2825 63C52.2825 64.1998 53.2551 65.1724 54.4549 65.1724Z" fill="#010101"/>
<path d="M54.4549 91.2414C55.6547 91.2414 56.6273 90.2688 56.6273 89.069C56.6273 87.8692 55.6547 86.8966 54.4549 86.8966C53.2551 86.8966 52.2825 87.8692 52.2825 89.069C52.2825 90.2688 53.2551 91.2414 54.4549 91.2414Z" fill="#010101"/>
<path d="M54.4549 95.5862C55.6547 95.5862 56.6273 94.6136 56.6273 93.4138C56.6273 92.214 55.6547 91.2414 54.4549 91.2414C53.2551 91.2414 52.2825 92.214 52.2825 93.4138C52.2825 94.6136 53.2551 95.5862 54.4549 95.5862Z" fill="#010101"/>
<path d="M54.4549 99.931C55.6547 99.931 56.6273 98.9584 56.6273 97.7586C56.6273 96.5588 55.6547 95.5862 54.4549 95.5862C53.2551 95.5862 52.2825 96.5588 52.2825 97.7586C52.2825 98.9584 53.2551 99.931 54.4549 99.931Z" fill="#010101"/>
<path d="M54.4549 121.655C55.6547 121.655 56.6273 120.683 56.6273 119.483C56.6273 118.283 55.6547 117.31 54.4549 117.31C53.2551 117.31 52.2825 118.283 52.2825 119.483C52.2825 120.683 53.2551 121.655 54.4549 121.655Z" fill="#010101"/>
<path d="M58.7997 13.0345C59.9995 13.0345 60.9721 12.0619 60.9721 10.8621C60.9721 9.66228 59.9995 8.68966 58.7997 8.68966C57.5999 8.68966 56.6273 9.66228 56.6273 10.8621C56.6273 12.0619 57.5999 13.0345 58.7997 13.0345Z" fill="#010101"/>
<path d="M58.7997 26.069C59.9995 26.069 60.9721 25.0963 60.9721 23.8966C60.9721 22.6968 59.9995 21.7241 58.7997 21.7241C57.5999 21.7241 56.6273 22.6968 56.6273 23.8966C56.6273 25.0963 57.5999 26.069 58.7997 26.069Z" fill="#010101"/>
<path d="M58.7997 43.4483C59.9995 43.4483 60.9721 42.4757 60.9721 41.2759C60.9721 40.0761 59.9995 39.1035 58.7997 39.1035C57.5999 39.1035 56.6273 40.0761 56.6273 41.2759C56.6273 42.4757 57.5999 43.4483 58.7997 43.4483Z" fill="#010101"/>
<path d="M58.7997 56.4828C59.9995 56.4828 60.9721 55.5101 60.9721 54.3103C60.9721 53.1106 59.9995 52.1379 58.7997 52.1379C57.5999 52.1379 56.6273 53.1106 56.6273 54.3103C56.6273 55.5101 57.5999 56.4828 58.7997 56.4828Z" fill="#010101"/>
<path d="M58.7997 60.8276C59.9995 60.8276 60.9721 59.855 60.9721 58.6552C60.9721 57.4554 59.9995 56.4828 58.7997 56.4828C57.5999 56.4828 56.6273 57.4554 56.6273 58.6552C56.6273 59.855 57.5999 60.8276 58.7997 60.8276Z" fill="#010101"/>
<path d="M58.7997 65.1724C59.9995 65.1724 60.9721 64.1998 60.9721 63C60.9721 61.8002 59.9995 60.8276 58.7997 60.8276C57.5999 60.8276 56.6273 61.8002 56.6273 63C56.6273 64.1998 57.5999 65.1724 58.7997 65.1724Z" fill="#010101"/>
<path d="M58.7997 73.8621C59.9995 73.8621 60.9721 72.8895 60.9721 71.6897C60.9721 70.4899 59.9995 69.5172 58.7997 69.5172C57.5999 69.5172 56.6273 70.4899 56.6273 71.6897C56.6273 72.8895 57.5999 73.8621 58.7997 73.8621Z" fill="#010101"/>
<path d="M58.7997 78.2069C59.9995 78.2069 60.9721 77.2343 60.9721 76.0345C60.9721 74.8347 59.9995 73.8621 58.7997 73.8621C57.5999 73.8621 56.6273 74.8347 56.6273 76.0345C56.6273 77.2343 57.5999 78.2069 58.7997 78.2069Z" fill="#010101"/>
<path d="M58.7997 82.5517C59.9995 82.5517 60.9721 81.5791 60.9721 80.3793C60.9721 79.1795 59.9995 78.2069 58.7997 78.2069C57.5999 78.2069 56.6273 79.1795 56.6273 80.3793C56.6273 81.5791 57.5999 82.5517 58.7997 82.5517Z" fill="#010101"/>
<path d="M58.7997 86.8966C59.9995 86.8966 60.9721 85.9239 60.9721 84.7241C60.9721 83.5243 59.9995 82.5517 58.7997 82.5517C57.5999 82.5517 56.6273 83.5243 56.6273 84.7241C56.6273 85.9239 57.5999 86.8966 58.7997 86.8966Z" fill="#010101"/>
<path d="M58.7997 91.2414C59.9995 91.2414 60.9721 90.2688 60.9721 89.069C60.9721 87.8692 59.9995 86.8966 58.7997 86.8966C57.5999 86.8966 56.6273 87.8692 56.6273 89.069C56.6273 90.2688 57.5999 91.2414 58.7997 91.2414Z" fill="#010101"/>
<path d="M58.7997 99.931C59.9995 99.931 60.9721 98.9584 60.9721 97.7586C60.9721 96.5588 59.9995 95.5862 58.7997 95.5862C57.5999 95.5862 56.6273 96.5588 56.6273 97.7586C56.6273 98.9584 57.5999 99.931 58.7997 99.931Z" fill="#010101"/>
<path d="M58.7997 112.966C59.9995 112.966 60.9721 111.993 60.9721 110.793C60.9721 109.593 59.9995 108.621 58.7997 108.621C57.5999 108.621 56.6273 109.593 56.6273 110.793C56.6273 111.993 57.5999 112.966 58.7997 112.966Z" fill="#010101"/>
<path d="M58.7997 126C59.9995 126 60.9721 125.027 60.9721 123.828C60.9721 122.628 59.9995 121.655 58.7997 121.655C57.5999 121.655 56.6273 122.628 56.6273 123.828C56.6273 125.027 57.5999 126 58.7997 126Z" fill="#010101"/>
<path d="M63.1445 4.34483C64.3443 4.34483 65.3169 3.3722 65.3169 2.17241C65.3169 0.972623 64.3443 0 63.1445 0C61.9447 0 60.9721 0.972623 60.9721 2.17241C60.9721 3.3722 61.9447 4.34483 63.1445 4.34483Z" fill="#010101"/>
<path d="M63.1445 8.68966C64.3443 8.68966 65.3169 7.71703 65.3169 6.51724C65.3169 5.31745 64.3443 4.34483 63.1445 4.34483C61.9447 4.34483 60.9721 5.31745 60.9721 6.51724C60.9721 7.71703 61.9447 8.68966 63.1445 8.68966Z" fill="#010101"/>
<path d="M63.1445 26.069C64.3443 26.069 65.3169 25.0963 65.3169 23.8966C65.3169 22.6968 64.3443 21.7241 63.1445 21.7241C61.9447 21.7241 60.9721 22.6968 60.9721 23.8966C60.9721 25.0963 61.9447 26.069 63.1445 26.069Z" fill="#010101"/>
<path d="M63.1445 30.4138C64.3443 30.4138 65.3169 29.4412 65.3169 28.2414C65.3169 27.0416 64.3443 26.069 63.1445 26.069C61.9447 26.069 60.9721 27.0416 60.9721 28.2414C60.9721 29.4412 61.9447 30.4138 63.1445 30.4138Z" fill="#010101"/>
<path d="M63.1445 43.4483C64.3443 43.4483 65.3169 42.4757 65.3169 41.2759C65.3169 40.0761 64.3443 39.1035 63.1445 39.1035C61.9447 39.1035 60.9721 40.0761 60.9721 41.2759C60.9721 42.4757 61.9447 43.4483 63.1445 43.4483Z" fill="#010101"/>
<path d="M63.1445 56.4828C64.3443 56.4828 65.3169 55.5101 65.3169 54.3103C65.3169 53.1106 64.3443 52.1379 63.1445 52.1379C61.9447 52.1379 60.9721 53.1106 60.9721 54.3103C60.9721 55.5101 61.9447 56.4828 63.1445 56.4828Z" fill="#010101"/>
<path d="M63.1445 69.5172C64.3443 69.5172 65.3169 68.5446 65.3169 67.3448C65.3169 66.145 64.3443 65.1724 63.1445 65.1724C61.9447 65.1724 60.9721 66.145 60.9721 67.3448C60.9721 68.5446 61.9447 69.5172 63.1445 69.5172Z" fill="#010101"/>
<path d="M63.1445 73.8621C64.3443 73.8621 65.3169 72.8895 65.3169 71.6897C65.3169 70.4899 64.3443 69.5172 63.1445 69.5172C61.9447 69.5172 60.9721 70.4899 60.9721 71.6897C60.9721 72.8895 61.9447 73.8621 63.1445 73.8621Z" fill="#010101"/>
<path d="M63.1445 86.8966C64.3443 86.8966 65.3169 85.9239 65.3169 84.7241C65.3169 83.5243 64.3443 82.5517 63.1445 82.5517C61.9447 82.5517 60.9721 83.5243 60.9721 84.7241C60.9721 85.9239 61.9447 86.8966 63.1445 86.8966Z" fill="#010101"/>
<path d="M63.1445 95.5862C64.3443 95.5862 65.3169 94.6136 65.3169 93.4138C65.3169 92.214 64.3443 91.2414 63.1445 91.2414C61.9447 91.2414 60.9721 92.214 60.9721 93.4138C60.9721 94.6136 61.9447 95.5862 63.1445 95.5862Z" fill="#010101"/>
<path d="M63.1445 99.931C64.3443 99.931 65.3169 98.9584 65.3169 97.7586C65.3169 96.5588 64.3443 95.5862 63.1445 95.5862C61.9447 95.5862 60.9721 96.5588 60.9721 97.7586C60.9721 98.9584 61.9447 99.931 63.1445 99.931Z" fill="#010101"/>
<path d="M63.1445 112.966C64.3443 112.966 65.3169 111.993 65.3169 110.793C65.3169 109.593 64.3443 108.621 63.1445 108.621C61.9447 108.621 60.9721 109.593 60.9721 110.793C60.9721 111.993 61.9447 112.966 63.1445 112.966Z" fill="#010101"/>
<path d="M63.1445 117.31C64.3443 117.31 65.3169 116.338 65.3169 115.138C65.3169 113.938 64.3443 112.966 63.1445 112.966C61.9447 112.966 60.9721 113.938 60.9721 115.138C60.9721 116.338 61.9447 117.31 63.1445 117.31Z" fill="#010101"/>
<path d="M63.1445 121.655C64.3443 121.655 65.3169 120.683 65.3169 119.483C65.3169 118.283 64.3443 117.31 63.1445 117.31C61.9447 117.31 60.9721 118.283 60.9721 119.483C60.9721 120.683 61.9447 121.655 63.1445 121.655Z" fill="#010101"/>
<path d="M63.1445 126C64.3443 126 65.3169 125.027 65.3169 123.828C65.3169 122.628 64.3443 121.655 63.1445 121.655C61.9447 121.655 60.9721 122.628 60.9721 123.828C60.9721 125.027 61.9447 126 63.1445 126Z" fill="#010101"/>
<path d="M67.4894 8.68966C68.6891 8.68966 69.6618 7.71703 69.6618 6.51724C69.6618 5.31745 68.6891 4.34483 67.4894 4.34483C66.2896 4.34483 65.3169 5.31745 65.3169 6.51724C65.3169 7.71703 66.2896 8.68966 67.4894 8.68966Z" fill="#010101"/>
<path d="M67.4894 17.3793C68.6891 17.3793 69.6618 16.4067 69.6618 15.2069C69.6618 14.0071 68.6891 13.0345 67.4894 13.0345C66.2896 13.0345 65.3169 14.0071 65.3169 15.2069C65.3169 16.4067 66.2896 17.3793 67.4894 17.3793Z" fill="#010101"/>
<path d="M67.4894 26.069C68.6891 26.069 69.6618 25.0963 69.6618 23.8966C69.6618 22.6968 68.6891 21.7241 67.4894 21.7241C66.2896 21.7241 65.3169 22.6968 65.3169 23.8966C65.3169 25.0963 66.2896 26.069 67.4894 26.069Z" fill="#010101"/>
<path d="M67.4894 34.7586C68.6891 34.7586 69.6618 33.786 69.6618 32.5862C69.6618 31.3864 68.6891 30.4138 67.4894 30.4138C66.2896 30.4138 65.3169 31.3864 65.3169 32.5862C65.3169 33.786 66.2896 34.7586 67.4894 34.7586Z" fill="#010101"/>
<path d="M67.4894 39.1035C68.6891 39.1035 69.6618 38.1308 69.6618 36.931C69.6618 35.7312 68.6891 34.7586 67.4894 34.7586C66.2896 34.7586 65.3169 35.7312 65.3169 36.931C65.3169 38.1308 66.2896 39.1035 67.4894 39.1035Z" fill="#010101"/>
<path d="M67.4894 43.4483C68.6891 43.4483 69.6618 42.4757 69.6618 41.2759C69.6618 40.0761 68.6891 39.1035 67.4894 39.1035C66.2896 39.1035 65.3169 40.0761 65.3169 41.2759C65.3169 42.4757 66.2896 43.4483 67.4894 43.4483Z" fill="#010101"/>
<path d="M67.4894 60.8276C68.6891 60.8276 69.6618 59.855 69.6618 58.6552C69.6618 57.4554 68.6891 56.4828 67.4894 56.4828C66.2896 56.4828 65.3169 57.4554 65.3169 58.6552C65.3169 59.855 66.2896 60.8276 67.4894 60.8276Z" fill="#010101"/>
<path d="M67.4894 69.5172C68.6891 69.5172 69.6618 68.5446 69.6618 67.3448C69.6618 66.145 68.6891 65.1724 67.4894 65.1724C66.2896 65.1724 65.3169 66.145 65.3169 67.3448C65.3169 68.5446 66.2896 69.5172 67.4894 69.5172Z" fill="#010101"/>
<path d="M67.4894 78.2069C68.6891 78.2069 69.6618 77.2343 69.6618 76.0345C69.6618 74.8347 68.6891 73.8621 67.4894 73.8621C66.2896 73.8621 65.3169 74.8347 65.3169 76.0345C65.3169 77.2343 66.2896 78.2069 67.4894 78.2069Z" fill="#010101"/>
<path d="M67.4894 91.2414C68.6891 91.2414 69.6618 90.2688 69.6618 89.069C69.6618 87.8692 68.6891 86.8966 67.4894 86.8966C66.2896 86.8966 65.3169 87.8692 65.3169 89.069C65.3169 90.2688 66.2896 91.2414 67.4894 91.2414Z" fill="#010101"/>
<path d="M67.4894 95.5862C68.6891 95.5862 69.6618 94.6136 69.6618 93.4138C69.6618 92.214 68.6891 91.2414 67.4894 91.2414C66.2896 91.2414 65.3169 92.214 65.3169 93.4138C65.3169 94.6136 66.2896 95.5862 67.4894 95.5862Z" fill="#010101"/>
<path d="M67.4894 99.931C68.6891 99.931 69.6618 98.9584 69.6618 97.7586C69.6618 96.5588 68.6891 95.5862 67.4894 95.5862C66.2896 95.5862 65.3169 96.5588 65.3169 97.7586C65.3169 98.9584 66.2896 99.931 67.4894 99.931Z" fill="#010101"/>
<path d="M67.4894 112.966C68.6891 112.966 69.6618 111.993 69.6618 110.793C69.6618 109.593 68.6891 108.621 67.4894 108.621C66.2896 108.621 65.3169 109.593 65.3169 110.793C65.3169 111.993 66.2896 112.966 67.4894 112.966Z" fill="#010101"/>
<path d="M67.4894 121.655C68.6891 121.655 69.6618 120.683 69.6618 119.483C69.6618 118.283 68.6891 117.31 67.4894 117.31C66.2896 117.31 65.3169 118.283 65.3169 119.483C65.3169 120.683 66.2896 121.655 67.4894 121.655Z" fill="#010101"/>
<path d="M71.8342 4.34483C73.034 4.34483 74.0066 3.3722 74.0066 2.17241C74.0066 0.972623 73.034 0 71.8342 0C70.6344 0 69.6618 0.972623 69.6618 2.17241C69.6618 3.3722 70.6344 4.34483 71.8342 4.34483Z" fill="#010101"/>
<path d="M71.8342 8.68966C73.034 8.68966 74.0066 7.71703 74.0066 6.51724C74.0066 5.31745 73.034 4.34483 71.8342 4.34483C70.6344 4.34483 69.6618 5.31745 69.6618 6.51724C69.6618 7.71703 70.6344 8.68966 71.8342 8.68966Z" fill="#010101"/>
<path d="M71.8342 13.0345C73.034 13.0345 74.0066 12.0619 74.0066 10.8621C74.0066 9.66228 73.034 8.68966 71.8342 8.68966C70.6344 8.68966 69.6618 9.66228 69.6618 10.8621C69.6618 12.0619 70.6344 13.0345 71.8342 13.0345Z" fill="#010101"/>
<path d="M71.8342 30.4138C73.034 30.4138 74.0066 29.4412 74.0066 28.2414C74.0066 27.0416 73.034 26.069 71.8342 26.069C70.6344 26.069 69.6618 27.0416 69.6618 28.2414C69.6618 29.4412 70.6344 30.4138 71.8342 30.4138Z" fill="#010101"/>
<path d="M71.8342 43.4483C73.034 43.4483 74.0066 42.4757 74.0066 41.2759C74.0066 40.0761 73.034 39.1035 71.8342 39.1035C70.6344 39.1035 69.6618 40.0761 69.6618 41.2759C69.6618 42.4757 70.6344 43.4483 71.8342 43.4483Z" fill="#010101"/>
<path d="M71.8342 78.2069C73.034 78.2069 74.0066 77.2343 74.0066 76.0345C74.0066 74.8347 73.034 73.8621 71.8342 73.8621C70.6344 73.8621 69.6618 74.8347 69.6618 76.0345C69.6618 77.2343 70.6344 78.2069 71.8342 78.2069Z" fill="#010101"/>
<path d="M71.8342 99.931C73.034 99.931 74.0066 98.9584 74.0066 97.7586C74.0066 96.5588 73.034 95.5862 71.8342 95.5862C70.6344 95.5862 69.6618 96.5588 69.6618 97.7586C69.6618 98.9584 70.6344 99.931 71.8342 99.931Z" fill="#010101"/>
<path d="M76.179 13.0345C77.3788 13.0345 78.3514 12.0619 78.3514 10.8621C78.3514 9.66228 77.3788 8.68966 76.179 8.68966C74.9792 8.68966 74.0066 9.66228 74.0066 10.8621C74.0066 12.0619 74.9792 13.0345 76.179 13.0345Z" fill="#010101"/>
<path d="M76.179 21.7241C77.3788 21.7241 78.3514 20.7515 78.3514 19.5517C78.3514 18.3519 77.3788 17.3793 76.179 17.3793C74.9792 17.3793 74.0066 18.3519 74.0066 19.5517C74.0066 20.7515 74.9792 21.7241 76.179 21.7241Z" fill="#010101"/>
<path d="M76.179 34.7586C77.3788 34.7586 78.3514 33.786 78.3514 32.5862C78.3514 31.3864 77.3788 30.4138 76.179 30.4138C74.9792 30.4138 74.0066 31.3864 74.0066 32.5862C74.0066 33.786 74.9792 34.7586 76.179 34.7586Z" fill="#010101"/>
<path d="M76.179 47.7931C77.3788 47.7931 78.3514 46.8205 78.3514 45.6207C78.3514 44.4209 77.3788 43.4483 76.179 43.4483C74.9792 43.4483 74.0066 44.4209 74.0066 45.6207C74.0066 46.8205 74.9792 47.7931 76.179 47.7931Z" fill="#010101"/>
<path d="M76.179 56.4828C77.3788 56.4828 78.3514 55.5101 78.3514 54.3103C78.3514 53.1106 77.3788 52.1379 76.179 52.1379C74.9792 52.1379 74.0066 53.1106 74.0066 54.3103C74.0066 55.5101 74.9792 56.4828 76.179 56.4828Z" fill="#010101"/>
<path d="M76.179 65.1724C77.3788 65.1724 78.3514 64.1998 78.3514 63C78.3514 61.8002 77.3788 60.8276 76.179 60.8276C74.9792 60.8276 74.0066 61.8002 74.0066 63C74.0066 64.1998 74.9792 65.1724 76.179 65.1724Z" fill="#010101"/>
<path d="M76.179 86.8966C77.3788 86.8966 78.3514 85.9239 78.3514 84.7241C78.3514 83.5243 77.3788 82.5517 76.179 82.5517C74.9792 82.5517 74.0066 83.5243 74.0066 84.7241C74.0066 85.9239 74.9792 86.8966 76.179 86.8966Z" fill="#010101"/>
<path d="M76.179 91.2414C77.3788 91.2414 78.3514 90.2688 78.3514 89.069C78.3514 87.8692 77.3788 86.8966 76.179 86.8966C74.9792 86.8966 74.0066 87.8692 74.0066 89.069C74.0066 90.2688 74.9792 91.2414 76.179 91.2414Z" fill="#010101"/>
<path d="M76.179 95.5862C77.3788 95.5862 78.3514 94.6136 78.3514 93.4138C78.3514 92.214 77.3788 91.2414 76.179 91.2414C74.9792 91.2414 74.0066 92.214 74.0066 93.4138C74.0066 94.6136 74.9792 95.5862 76.179 95.5862Z" fill="#010101"/>
<path d="M76.179 99.931C77.3788 99.931 78.3514 98.9584 78.3514 97.7586C78.3514 96.5588 77.3788 95.5862 76.179 95.5862C74.9792 95.5862 74.0066 96.5588 74.0066 97.7586C74.0066 98.9584 74.9792 99.931 76.179 99.931Z" fill="#010101"/>
<path d="M76.179 104.276C77.3788 104.276 78.3514 103.303 78.3514 102.103C78.3514 100.904 77.3788 99.931 76.179 99.931C74.9792 99.931 74.0066 100.904 74.0066 102.103C74.0066 103.303 74.9792 104.276 76.179 104.276Z" fill="#010101"/>
<path d="M76.179 117.31C77.3788 117.31 78.3514 116.338 78.3514 115.138C78.3514 113.938 77.3788 112.966 76.179 112.966C74.9792 112.966 74.0066 113.938 74.0066 115.138C74.0066 116.338 74.9792 117.31 76.179 117.31Z" fill="#010101"/>
<path d="M76.179 126C77.3788 126 78.3514 125.027 78.3514 123.828C78.3514 122.628 77.3788 121.655 76.179 121.655C74.9792 121.655 74.0066 122.628 74.0066 123.828C74.0066 125.027 74.9792 126 76.179 126Z" fill="#010101"/>
<path d="M80.5238 4.34483C81.7236 4.34483 82.6963 3.3722 82.6963 2.17241C82.6963 0.972623 81.7236 0 80.5238 0C79.3241 0 78.3514 0.972623 78.3514 2.17241C78.3514 3.3722 79.3241 4.34483 80.5238 4.34483Z" fill="#010101"/>
<path d="M80.5238 8.68966C81.7236 8.68966 82.6963 7.71703 82.6963 6.51724C82.6963 5.31745 81.7236 4.34483 80.5238 4.34483C79.3241 4.34483 78.3514 5.31745 78.3514 6.51724C78.3514 7.71703 79.3241 8.68966 80.5238 8.68966Z" fill="#010101"/>
<path d="M80.5238 13.0345C81.7236 13.0345 82.6963 12.0619 82.6963 10.8621C82.6963 9.66228 81.7236 8.68966 80.5238 8.68966C79.3241 8.68966 78.3514 9.66228 78.3514 10.8621C78.3514 12.0619 79.3241 13.0345 80.5238 13.0345Z" fill="#010101"/>
<path d="M80.5238 21.7241C81.7236 21.7241 82.6963 20.7515 82.6963 19.5517C82.6963 18.3519 81.7236 17.3793 80.5238 17.3793C79.3241 17.3793 78.3514 18.3519 78.3514 19.5517C78.3514 20.7515 79.3241 21.7241 80.5238 21.7241Z" fill="#010101"/>
<path d="M80.5238 26.069C81.7236 26.069 82.6963 25.0963 82.6963 23.8966C82.6963 22.6968 81.7236 21.7241 80.5238 21.7241C79.3241 21.7241 78.3514 22.6968 78.3514 23.8966C78.3514 25.0963 79.3241 26.069 80.5238 26.069Z" fill="#010101"/>
<path d="M80.5238 30.4138C81.7236 30.4138 82.6963 29.4412 82.6963 28.2414C82.6963 27.0416 81.7236 26.069 80.5238 26.069C79.3241 26.069 78.3514 27.0416 78.3514 28.2414C78.3514 29.4412 79.3241 30.4138 80.5238 30.4138Z" fill="#010101"/>
<path d="M80.5238 34.7586C81.7236 34.7586 82.6963 33.786 82.6963 32.5862C82.6963 31.3864 81.7236 30.4138 80.5238 30.4138C79.3241 30.4138 78.3514 31.3864 78.3514 32.5862C78.3514 33.786 79.3241 34.7586 80.5238 34.7586Z" fill="#010101"/>
<path d="M80.5238 52.1379C81.7236 52.1379 82.6963 51.1653 82.6963 49.9655C82.6963 48.7657 81.7236 47.7931 80.5238 47.7931C79.3241 47.7931 78.3514 48.7657 78.3514 49.9655C78.3514 51.1653 79.3241 52.1379 80.5238 52.1379Z" fill="#010101"/>
<path d="M80.5238 56.4828C81.7236 56.4828 82.6963 55.5101 82.6963 54.3103C82.6963 53.1106 81.7236 52.1379 80.5238 52.1379C79.3241 52.1379 78.3514 53.1106 78.3514 54.3103C78.3514 55.5101 79.3241 56.4828 80.5238 56.4828Z" fill="#010101"/>
<path d="M80.5238 65.1724C81.7236 65.1724 82.6963 64.1998 82.6963 63C82.6963 61.8002 81.7236 60.8276 80.5238 60.8276C79.3241 60.8276 78.3514 61.8002 78.3514 63C78.3514 64.1998 79.3241 65.1724 80.5238 65.1724Z" fill="#010101"/>
<path d="M80.5238 69.5172C81.7236 69.5172 82.6963 68.5446 82.6963 67.3448C82.6963 66.145 81.7236 65.1724 80.5238 65.1724C79.3241 65.1724 78.3514 66.145 78.3514 67.3448C78.3514 68.5446 79.3241 69.5172 80.5238 69.5172Z" fill="#010101"/>
<path d="M80.5238 82.5517C81.7236 82.5517 82.6963 81.5791 82.6963 80.3793C82.6963 79.1795 81.7236 78.2069 80.5238 78.2069C79.3241 78.2069 78.3514 79.1795 78.3514 80.3793C78.3514 81.5791 79.3241 82.5517 80.5238 82.5517Z" fill="#010101"/>
<path d="M80.5238 86.8966C81.7236 86.8966 82.6963 85.9239 82.6963 84.7241C82.6963 83.5243 81.7236 82.5517 80.5238 82.5517C79.3241 82.5517 78.3514 83.5243 78.3514 84.7241C78.3514 85.9239 79.3241 86.8966 80.5238 86.8966Z" fill="#010101"/>
<path d="M80.5238 104.276C81.7236 104.276 82.6963 103.303 82.6963 102.103C82.6963 100.904 81.7236 99.931 80.5238 99.931C79.3241 99.931 78.3514 100.904 78.3514 102.103C78.3514 103.303 79.3241 104.276 80.5238 104.276Z" fill="#010101"/>
<path d="M80.5238 117.31C81.7236 117.31 82.6963 116.338 82.6963 115.138C82.6963 113.938 81.7236 112.966 80.5238 112.966C79.3241 112.966 78.3514 113.938 78.3514 115.138C78.3514 116.338 79.3241 117.31 80.5238 117.31Z" fill="#010101"/>
<path d="M80.5238 126C81.7236 126 82.6963 125.027 82.6963 123.828C82.6963 122.628 81.7236 121.655 80.5238 121.655C79.3241 121.655 78.3514 122.628 78.3514 123.828C78.3514 125.027 79.3241 126 80.5238 126Z" fill="#010101"/>
<path d="M84.8687 13.0345C86.0685 13.0345 87.0411 12.0619 87.0411 10.8621C87.0411 9.66228 86.0685 8.68966 84.8687 8.68966C83.6689 8.68966 82.6963 9.66228 82.6963 10.8621C82.6963 12.0619 83.6689 13.0345 84.8687 13.0345Z" fill="#010101"/>
<path d="M84.8687 17.3793C86.0685 17.3793 87.0411 16.4067 87.0411 15.2069C87.0411 14.0071 86.0685 13.0345 84.8687 13.0345C83.6689 13.0345 82.6963 14.0071 82.6963 15.2069C82.6963 16.4067 83.6689 17.3793 84.8687 17.3793Z" fill="#010101"/>
<path d="M84.8687 26.069C86.0685 26.069 87.0411 25.0963 87.0411 23.8966C87.0411 22.6968 86.0685 21.7241 84.8687 21.7241C83.6689 21.7241 82.6963 22.6968 82.6963 23.8966C82.6963 25.0963 83.6689 26.069 84.8687 26.069Z" fill="#010101"/>
<path d="M84.8687 39.1035C86.0685 39.1035 87.0411 38.1308 87.0411 36.931C87.0411 35.7312 86.0685 34.7586 84.8687 34.7586C83.6689 34.7586 82.6963 35.7312 82.6963 36.931C82.6963 38.1308 83.6689 39.1035 84.8687 39.1035Z" fill="#010101"/>
<path d="M84.8687 43.4483C86.0685 43.4483 87.0411 42.4757 87.0411 41.2759C87.0411 40.0761 86.0685 39.1035 84.8687 39.1035C83.6689 39.1035 82.6963 40.0761 82.6963 41.2759C82.6963 42.4757 83.6689 43.4483 84.8687 43.4483Z" fill="#010101"/>
<path d="M84.8687 47.7931C86.0685 47.7931 87.0411 46.8205 87.0411 45.6207C87.0411 44.4209 86.0685 43.4483 84.8687 43.4483C83.6689 43.4483 82.6963 44.4209 82.6963 45.6207C82.6963 46.8205 83.6689 47.7931 84.8687 47.7931Z" fill="#010101"/>
<path d="M84.8687 52.1379C86.0685 52.1379 87.0411 51.1653 87.0411 49.9655C87.0411 48.7657 86.0685 47.7931 84.8687 47.7931C83.6689 47.7931 82.6963 48.7657 82.6963 49.9655C82.6963 51.1653 83.6689 52.1379 84.8687 52.1379Z" fill="#010101"/>
<path d="M84.8687 56.4828C86.0685 56.4828 87.0411 55.5101 87.0411 54.3103C87.0411 53.1106 86.0685 52.1379 84.8687 52.1379C83.6689 52.1379 82.6963 53.1106 82.6963 54.3103C82.6963 55.5101 83.6689 56.4828 84.8687 56.4828Z" fill="#010101"/>
<path d="M84.8687 60.8276C86.0685 60.8276 87.0411 59.855 87.0411 58.6552C87.0411 57.4554 86.0685 56.4828 84.8687 56.4828C83.6689 56.4828 82.6963 57.4554 82.6963 58.6552C82.6963 59.855 83.6689 60.8276 84.8687 60.8276Z" fill="#010101"/>
<path d="M84.8687 86.8966C86.0685 86.8966 87.0411 85.9239 87.0411 84.7241C87.0411 83.5243 86.0685 82.5517 84.8687 82.5517C83.6689 82.5517 82.6963 83.5243 82.6963 84.7241C82.6963 85.9239 83.6689 86.8966 84.8687 86.8966Z" fill="#010101"/>
<path d="M84.8687 95.5862C86.0685 95.5862 87.0411 94.6136 87.0411 93.4138C87.0411 92.214 86.0685 91.2414 84.8687 91.2414C83.6689 91.2414 82.6963 92.214 82.6963 93.4138C82.6963 94.6136 83.6689 95.5862 84.8687 95.5862Z" fill="#010101"/>
<path d="M84.8687 99.931C86.0685 99.931 87.0411 98.9584 87.0411 97.7586C87.0411 96.5588 86.0685 95.5862 84.8687 95.5862C83.6689 95.5862 82.6963 96.5588 82.6963 97.7586C82.6963 98.9584 83.6689 99.931 84.8687 99.931Z" fill="#010101"/>
<path d="M84.8687 112.966C86.0685 112.966 87.0411 111.993 87.0411 110.793C87.0411 109.593 86.0685 108.621 84.8687 108.621C83.6689 108.621 82.6963 109.593 82.6963 110.793C82.6963 111.993 83.6689 112.966 84.8687 112.966Z" fill="#010101"/>
<path d="M84.8687 126C86.0685 126 87.0411 125.027 87.0411 123.828C87.0411 122.628 86.0685 121.655 84.8687 121.655C83.6689 121.655 82.6963 122.628 82.6963 123.828C82.6963 125.027 83.6689 126 84.8687 126Z" fill="#010101"/>
<path d="M89.2135 4.34483C90.4133 4.34483 91.3859 3.3722 91.3859 2.17241C91.3859 0.972623 90.4133 0 89.2135 0C88.0137 0 87.0411 0.972623 87.0411 2.17241C87.0411 3.3722 88.0137 4.34483 89.2135 4.34483Z" fill="#010101"/>
<path d="M89.2135 8.68966C90.4133 8.68966 91.3859 7.71703 91.3859 6.51724C91.3859 5.31745 90.4133 4.34483 89.2135 4.34483C88.0137 4.34483 87.0411 5.31745 87.0411 6.51724C87.0411 7.71703 88.0137 8.68966 89.2135 8.68966Z" fill="#010101"/>
<path d="M89.2135 13.0345C90.4133 13.0345 91.3859 12.0619 91.3859 10.8621C91.3859 9.66228 90.4133 8.68966 89.2135 8.68966C88.0137 8.68966 87.0411 9.66228 87.0411 10.8621C87.0411 12.0619 88.0137 13.0345 89.2135 13.0345Z" fill="#010101"/>
<path d="M89.2135 17.3793C90.4133 17.3793 91.3859 16.4067 91.3859 15.2069C91.3859 14.0071 90.4133 13.0345 89.2135 13.0345C88.0137 13.0345 87.0411 14.0071 87.0411 15.2069C87.0411 16.4067 88.0137 17.3793 89.2135 17.3793Z" fill="#010101"/>
<path d="M89.2135 30.4138C90.4133 30.4138 91.3859 29.4412 91.3859 28.2414C91.3859 27.0416 90.4133 26.069 89.2135 26.069C88.0137 26.069 87.0411 27.0416 87.0411 28.2414C87.0411 29.4412 88.0137 30.4138 89.2135 30.4138Z" fill="#010101"/>
<path d="M89.2135 43.4483C90.4133 43.4483 91.3859 42.4757 91.3859 41.2759C91.3859 40.0761 90.4133 39.1035 89.2135 39.1035C88.0137 39.1035 87.0411 40.0761 87.0411 41.2759C87.0411 42.4757 88.0137 43.4483 89.2135 43.4483Z" fill="#010101"/>
<path d="M89.2135 56.4828C90.4133 56.4828 91.3859 55.5101 91.3859 54.3103C91.3859 53.1106 90.4133 52.1379 89.2135 52.1379C88.0137 52.1379 87.0411 53.1106 87.0411 54.3103C87.0411 55.5101 88.0137 56.4828 89.2135 56.4828Z" fill="#010101"/>
<path d="M89.2135 60.8276C90.4133 60.8276 91.3859 59.855 91.3859 58.6552C91.3859 57.4554 90.4133 56.4828 89.2135 56.4828C88.0137 56.4828 87.0411 57.4554 87.0411 58.6552C87.0411 59.855 88.0137 60.8276 89.2135 60.8276Z" fill="#010101"/>
<path d="M89.2135 69.5172C90.4133 69.5172 91.3859 68.5446 91.3859 67.3448C91.3859 66.145 90.4133 65.1724 89.2135 65.1724C88.0137 65.1724 87.0411 66.145 87.0411 67.3448C87.0411 68.5446 88.0137 69.5172 89.2135 69.5172Z" fill="#010101"/>
<path d="M89.2135 73.8621C90.4133 73.8621 91.3859 72.8895 91.3859 71.6897C91.3859 70.4899 90.4133 69.5172 89.2135 69.5172C88.0137 69.5172 87.0411 70.4899 87.0411 71.6897C87.0411 72.8895 88.0137 73.8621 89.2135 73.8621Z" fill="#010101"/>
<path d="M89.2135 82.5517C90.4133 82.5517 91.3859 81.5791 91.3859 80.3793C91.3859 79.1795 90.4133 78.2069 89.2135 78.2069C88.0137 78.2069 87.0411 79.1795 87.0411 80.3793C87.0411 81.5791 88.0137 82.5517 89.2135 82.5517Z" fill="#010101"/>
<path d="M89.2135 86.8966C90.4133 86.8966 91.3859 85.9239 91.3859 84.7241C91.3859 83.5243 90.4133 82.5517 89.2135 82.5517C88.0137 82.5517 87.0411 83.5243 87.0411 84.7241C87.0411 85.9239 88.0137 86.8966 89.2135 86.8966Z" fill="#010101"/>
<path d="M89.2135 91.2414C90.4133 91.2414 91.3859 90.2688 91.3859 89.069C91.3859 87.8692 90.4133 86.8966 89.2135 86.8966C88.0137 86.8966 87.0411 87.8692 87.0411 89.069C87.0411 90.2688 88.0137 91.2414 89.2135 91.2414Z" fill="#010101"/>
<path d="M89.2135 95.5862C90.4133 95.5862 91.3859 94.6136 91.3859 93.4138C91.3859 92.214 90.4133 91.2414 89.2135 91.2414C88.0137 91.2414 87.0411 92.214 87.0411 93.4138C87.0411 94.6136 88.0137 95.5862 89.2135 95.5862Z" fill="#010101"/>
<path d="M89.2135 99.931C90.4133 99.931 91.3859 98.9584 91.3859 97.7586C91.3859 96.5588 90.4133 95.5862 89.2135 95.5862C88.0137 95.5862 87.0411 96.5588 87.0411 97.7586C87.0411 98.9584 88.0137 99.931 89.2135 99.931Z" fill="#010101"/>
<path d="M89.2135 104.276C90.4133 104.276 91.3859 103.303 91.3859 102.103C91.3859 100.904 90.4133 99.931 89.2135 99.931C88.0137 99.931 87.0411 100.904 87.0411 102.103C87.0411 103.303 88.0137 104.276 89.2135 104.276Z" fill="#010101"/>
<path d="M89.2135 108.621C90.4133 108.621 91.3859 107.648 91.3859 106.448C91.3859 105.248 90.4133 104.276 89.2135 104.276C88.0137 104.276 87.0411 105.248 87.0411 106.448C87.0411 107.648 88.0137 108.621 89.2135 108.621Z" fill="#010101"/>
<path d="M89.2135 121.655C90.4133 121.655 91.3859 120.683 91.3859 119.483C91.3859 118.283 90.4133 117.31 89.2135 117.31C88.0137 117.31 87.0411 118.283 87.0411 119.483C87.0411 120.683 88.0137 121.655 89.2135 121.655Z" fill="#010101"/>
<path d="M93.5583 39.1035C94.7581 39.1035 95.7307 38.1308 95.7307 36.931C95.7307 35.7312 94.7581 34.7586 93.5583 34.7586C92.3585 34.7586 91.3859 35.7312 91.3859 36.931C91.3859 38.1308 92.3585 39.1035 93.5583 39.1035Z" fill="#010101"/>
<path d="M93.5583 43.4483C94.7581 43.4483 95.7307 42.4757 95.7307 41.2759C95.7307 40.0761 94.7581 39.1035 93.5583 39.1035C92.3585 39.1035 91.3859 40.0761 91.3859 41.2759C91.3859 42.4757 92.3585 43.4483 93.5583 43.4483Z" fill="#010101"/>
<path d="M93.5583 47.7931C94.7581 47.7931 95.7307 46.8205 95.7307 45.6207C95.7307 44.4209 94.7581 43.4483 93.5583 43.4483C92.3585 43.4483 91.3859 44.4209 91.3859 45.6207C91.3859 46.8205 92.3585 47.7931 93.5583 47.7931Z" fill="#010101"/>
<path d="M93.5583 60.8276C94.7581 60.8276 95.7307 59.855 95.7307 58.6552C95.7307 57.4554 94.7581 56.4828 93.5583 56.4828C92.3585 56.4828 91.3859 57.4554 91.3859 58.6552C91.3859 59.855 92.3585 60.8276 93.5583 60.8276Z" fill="#010101"/>
<path d="M93.5583 69.5172C94.7581 69.5172 95.7307 68.5446 95.7307 67.3448C95.7307 66.145 94.7581 65.1724 93.5583 65.1724C92.3585 65.1724 91.3859 66.145 91.3859 67.3448C91.3859 68.5446 92.3585 69.5172 93.5583 69.5172Z" fill="#010101"/>
<path d="M93.5583 73.8621C94.7581 73.8621 95.7307 72.8895 95.7307 71.6897C95.7307 70.4899 94.7581 69.5172 93.5583 69.5172C92.3585 69.5172 91.3859 70.4899 91.3859 71.6897C91.3859 72.8895 92.3585 73.8621 93.5583 73.8621Z" fill="#010101"/>
<path d="M93.5583 91.2414C94.7581 91.2414 95.7307 90.2688 95.7307 89.069C95.7307 87.8692 94.7581 86.8966 93.5583 86.8966C92.3585 86.8966 91.3859 87.8692 91.3859 89.069C91.3859 90.2688 92.3585 91.2414 93.5583 91.2414Z" fill="#010101"/>
<path d="M93.5583 108.621C94.7581 108.621 95.7307 107.648 95.7307 106.448C95.7307 105.248 94.7581 104.276 93.5583 104.276C92.3585 104.276 91.3859 105.248 91.3859 106.448C91.3859 107.648 92.3585 108.621 93.5583 108.621Z" fill="#010101"/>
<path d="M93.5583 112.966C94.7581 112.966 95.7307 111.993 95.7307 110.793C95.7307 109.593 94.7581 108.621 93.5583 108.621C92.3585 108.621 91.3859 109.593 91.3859 110.793C91.3859 111.993 92.3585 112.966 93.5583 112.966Z" fill="#010101"/>
<path d="M93.5583 126C94.7581 126 95.7307 125.027 95.7307 123.828C95.7307 122.628 94.7581 121.655 93.5583 121.655C92.3585 121.655 91.3859 122.628 91.3859 123.828C91.3859 125.027 92.3585 126 93.5583 126Z" fill="#010101"/>
<path d="M97.9032 47.7931C99.1029 47.7931 100.076 46.8205 100.076 45.6207C100.076 44.4209 99.1029 43.4483 97.9032 43.4483C96.7034 43.4483 95.7307 44.4209 95.7307 45.6207C95.7307 46.8205 96.7034 47.7931 97.9032 47.7931Z" fill="#010101"/>
<path d="M97.9032 52.1379C99.1029 52.1379 100.076 51.1653 100.076 49.9655C100.076 48.7657 99.1029 47.7931 97.9032 47.7931C96.7034 47.7931 95.7307 48.7657 95.7307 49.9655C95.7307 51.1653 96.7034 52.1379 97.9032 52.1379Z" fill="#010101"/>
<path d="M97.9032 60.8276C99.1029 60.8276 100.076 59.855 100.076 58.6552C100.076 57.4554 99.1029 56.4828 97.9032 56.4828C96.7034 56.4828 95.7307 57.4554 95.7307 58.6552C95.7307 59.855 96.7034 60.8276 97.9032 60.8276Z" fill="#010101"/>
<path d="M97.9032 69.5172C99.1029 69.5172 100.076 68.5446 100.076 67.3448C100.076 66.145 99.1029 65.1724 97.9032 65.1724C96.7034 65.1724 95.7307 66.145 95.7307 67.3448C95.7307 68.5446 96.7034 69.5172 97.9032 69.5172Z" fill="#010101"/>
<path d="M97.9032 78.2069C99.1029 78.2069 100.076 77.2343 100.076 76.0345C100.076 74.8347 99.1029 73.8621 97.9032 73.8621C96.7034 73.8621 95.7307 74.8347 95.7307 76.0345C95.7307 77.2343 96.7034 78.2069 97.9032 78.2069Z" fill="#010101"/>
<path d="M97.9032 82.5517C99.1029 82.5517 100.076 81.5791 100.076 80.3793C100.076 79.1795 99.1029 78.2069 97.9032 78.2069C96.7034 78.2069 95.7307 79.1795 95.7307 80.3793C95.7307 81.5791 96.7034 82.5517 97.9032 82.5517Z" fill="#010101"/>
<path d="M97.9032 91.2414C99.1029 91.2414 100.076 90.2688 100.076 89.069C100.076 87.8692 99.1029 86.8966 97.9032 86.8966C96.7034 86.8966 95.7307 87.8692 95.7307 89.069C95.7307 90.2688 96.7034 91.2414 97.9032 91.2414Z" fill="#010101"/>
<path d="M97.9032 99.931C99.1029 99.931 100.076 98.9584 100.076 97.7586C100.076 96.5588 99.1029 95.5862 97.9032 95.5862C96.7034 95.5862 95.7307 96.5588 95.7307 97.7586C95.7307 98.9584 96.7034 99.931 97.9032 99.931Z" fill="#010101"/>
<path d="M97.9032 108.621C99.1029 108.621 100.076 107.648 100.076 106.448C100.076 105.248 99.1029 104.276 97.9032 104.276C96.7034 104.276 95.7307 105.248 95.7307 106.448C95.7307 107.648 96.7034 108.621 97.9032 108.621Z" fill="#010101"/>
<path d="M97.9032 112.966C99.1029 112.966 100.076 111.993 100.076 110.793C100.076 109.593 99.1029 108.621 97.9032 108.621C96.7034 108.621 95.7307 109.593 95.7307 110.793C95.7307 111.993 96.7034 112.966 97.9032 112.966Z" fill="#010101"/>
<path d="M97.9032 117.31C99.1029 117.31 100.076 116.338 100.076 115.138C100.076 113.938 99.1029 112.966 97.9032 112.966C96.7034 112.966 95.7307 113.938 95.7307 115.138C95.7307 116.338 96.7034 117.31 97.9032 117.31Z" fill="#010101"/>
<path d="M97.9032 126C99.1029 126 100.076 125.027 100.076 123.828C100.076 122.628 99.1029 121.655 97.9032 121.655C96.7034 121.655 95.7307 122.628 95.7307 123.828C95.7307 125.027 96.7034 126 97.9032 126Z" fill="#010101"/>
<path d="M102.248 56.4828C103.448 56.4828 104.42 55.5101 104.42 54.3103C104.42 53.1106 103.448 52.1379 102.248 52.1379C101.048 52.1379 100.076 53.1106 100.076 54.3103C100.076 55.5101 101.048 56.4828 102.248 56.4828Z" fill="#010101"/>
<path d="M102.248 65.1724C103.448 65.1724 104.42 64.1998 104.42 63C104.42 61.8002 103.448 60.8276 102.248 60.8276C101.048 60.8276 100.076 61.8002 100.076 63C100.076 64.1998 101.048 65.1724 102.248 65.1724Z" fill="#010101"/>
<path d="M102.248 69.5172C103.448 69.5172 104.42 68.5446 104.42 67.3448C104.42 66.145 103.448 65.1724 102.248 65.1724C101.048 65.1724 100.076 66.145 100.076 67.3448C100.076 68.5446 101.048 69.5172 102.248 69.5172Z" fill="#010101"/>
<path d="M102.248 82.5517C103.448 82.5517 104.42 81.5791 104.42 80.3793C104.42 79.1795 103.448 78.2069 102.248 78.2069C101.048 78.2069 100.076 79.1795 100.076 80.3793C100.076 81.5791 101.048 82.5517 102.248 82.5517Z" fill="#010101"/>
<path d="M102.248 86.8966C103.448 86.8966 104.42 85.9239 104.42 84.7241C104.42 83.5243 103.448 82.5517 102.248 82.5517C101.048 82.5517 100.076 83.5243 100.076 84.7241C100.076 85.9239 101.048 86.8966 102.248 86.8966Z" fill="#010101"/>
<path d="M102.248 91.2414C103.448 91.2414 104.42 90.2688 104.42 89.069C104.42 87.8692 103.448 86.8966 102.248 86.8966C101.048 86.8966 100.076 87.8692 100.076 89.069C100.076 90.2688 101.048 91.2414 102.248 91.2414Z" fill="#010101"/>
<path d="M102.248 108.621C103.448 108.621 104.42 107.648 104.42 106.448C104.42 105.248 103.448 104.276 102.248 104.276C101.048 104.276 100.076 105.248 100.076 106.448C100.076 107.648 101.048 108.621 102.248 108.621Z" fill="#010101"/>
<path d="M102.248 112.966C103.448 112.966 104.42 111.993 104.42 110.793C104.42 109.593 103.448 108.621 102.248 108.621C101.048 108.621 100.076 109.593 100.076 110.793C100.076 111.993 101.048 112.966 102.248 112.966Z" fill="#010101"/>
<path d="M102.248 121.655C103.448 121.655 104.42 120.683 104.42 119.483C104.42 118.283 103.448 117.31 102.248 117.31C101.048 117.31 100.076 118.283 100.076 119.483C100.076 120.683 101.048 121.655 102.248 121.655Z" fill="#010101"/>
<path d="M102.248 126C103.448 126 104.42 125.027 104.42 123.828C104.42 122.628 103.448 121.655 102.248 121.655C101.048 121.655 100.076 122.628 100.076 123.828C100.076 125.027 101.048 126 102.248 126Z" fill="#010101"/>
<path d="M106.593 69.5172C107.793 69.5172 108.765 68.5446 108.765 67.3448C108.765 66.145 107.793 65.1724 106.593 65.1724C105.393 65.1724 104.42 66.145 104.42 67.3448C104.42 68.5446 105.393 69.5172 106.593 69.5172Z" fill="#010101"/>
<path d="M106.593 73.8621C107.793 73.8621 108.765 72.8895 108.765 71.6897C108.765 70.4899 107.793 69.5172 106.593 69.5172C105.393 69.5172 104.42 70.4899 104.42 71.6897C104.42 72.8895 105.393 73.8621 106.593 73.8621Z" fill="#010101"/>
<path d="M106.593 78.2069C107.793 78.2069 108.765 77.2343 108.765 76.0345C108.765 74.8347 107.793 73.8621 106.593 73.8621C105.393 73.8621 104.42 74.8347 104.42 76.0345C104.42 77.2343 105.393 78.2069 106.593 78.2069Z" fill="#010101"/>
<path d="M106.593 82.5517C107.793 82.5517 108.765 81.5791 108.765 80.3793C108.765 79.1795 107.793 78.2069 106.593 78.2069C105.393 78.2069 104.42 79.1795 104.42 80.3793C104.42 81.5791 105.393 82.5517 106.593 82.5517Z" fill="#010101"/>
<path d="M106.593 86.8966C107.793 86.8966 108.765 85.9239 108.765 84.7241C108.765 83.5243 107.793 82.5517 106.593 82.5517C105.393 82.5517 104.42 83.5243 104.42 84.7241C104.42 85.9239 105.393 86.8966 106.593 86.8966Z" fill="#010101"/>
<path d="M106.593 91.2414C107.793 91.2414 108.765 90.2688 108.765 89.069C108.765 87.8692 107.793 86.8966 106.593 86.8966C105.393 86.8966 104.42 87.8692 104.42 89.069C104.42 90.2688 105.393 91.2414 106.593 91.2414Z" fill="#010101"/>
<path d="M106.593 95.5862C107.793 95.5862 108.765 94.6136 108.765 93.4138C108.765 92.214 107.793 91.2414 106.593 91.2414C105.393 91.2414 104.42 92.214 104.42 93.4138C104.42 94.6136 105.393 95.5862 106.593 95.5862Z" fill="#010101"/>
<path d="M106.593 99.931C107.793 99.931 108.765 98.9584 108.765 97.7586C108.765 96.5588 107.793 95.5862 106.593 95.5862C105.393 95.5862 104.42 96.5588 104.42 97.7586C104.42 98.9584 105.393 99.931 106.593 99.931Z" fill="#010101"/>
<path d="M106.593 104.276C107.793 104.276 108.765 103.303 108.765 102.103C108.765 100.904 107.793 99.931 106.593 99.931C105.393 99.931 104.42 100.904 104.42 102.103C104.42 103.303 105.393 104.276 106.593 104.276Z" fill="#010101"/>
<path d="M106.593 108.621C107.793 108.621 108.765 107.648 108.765 106.448C108.765 105.248 107.793 104.276 106.593 104.276C105.393 104.276 104.42 105.248 104.42 106.448C104.42 107.648 105.393 108.621 106.593 108.621Z" fill="#010101"/>
<path d="M110.938 47.7931C112.137 47.7931 113.11 46.8205 113.11 45.6207C113.11 44.4209 112.137 43.4483 110.938 43.4483C109.738 43.4483 108.765 44.4209 108.765 45.6207C108.765 46.8205 109.738 47.7931 110.938 47.7931Z" fill="#010101"/>
<path d="M110.938 56.4828C112.137 56.4828 113.11 55.5101 113.11 54.3103C113.11 53.1106 112.137 52.1379 110.938 52.1379C109.738 52.1379 108.765 53.1106 108.765 54.3103C108.765 55.5101 109.738 56.4828 110.938 56.4828Z" fill="#010101"/>
<path d="M110.938 73.8621C112.137 73.8621 113.11 72.8895 113.11 71.6897C113.11 70.4899 112.137 69.5172 110.938 69.5172C109.738 69.5172 108.765 70.4899 108.765 71.6897C108.765 72.8895 109.738 73.8621 110.938 73.8621Z" fill="#010101"/>
<path d="M110.938 78.2069C112.137 78.2069 113.11 77.2343 113.11 76.0345C113.11 74.8347 112.137 73.8621 110.938 73.8621C109.738 73.8621 108.765 74.8347 108.765 76.0345C108.765 77.2343 109.738 78.2069 110.938 78.2069Z" fill="#010101"/>
<path d="M110.938 82.5517C112.137 82.5517 113.11 81.5791 113.11 80.3793C113.11 79.1795 112.137 78.2069 110.938 78.2069C109.738 78.2069 108.765 79.1795 108.765 80.3793C108.765 81.5791 109.738 82.5517 110.938 82.5517Z" fill="#010101"/>
<path d="M110.938 86.8966C112.137 86.8966 113.11 85.9239 113.11 84.7241C113.11 83.5243 112.137 82.5517 110.938 82.5517C109.738 82.5517 108.765 83.5243 108.765 84.7241C108.765 85.9239 109.738 86.8966 110.938 86.8966Z" fill="#010101"/>
<path d="M110.938 91.2414C112.137 91.2414 113.11 90.2688 113.11 89.069C113.11 87.8692 112.137 86.8966 110.938 86.8966C109.738 86.8966 108.765 87.8692 108.765 89.069C108.765 90.2688 109.738 91.2414 110.938 91.2414Z" fill="#010101"/>
<path d="M110.938 104.276C112.137 104.276 113.11 103.303 113.11 102.103C113.11 100.904 112.137 99.931 110.938 99.931C109.738 99.931 108.765 100.904 108.765 102.103C108.765 103.303 109.738 104.276 110.938 104.276Z" fill="#010101"/>
<path d="M110.938 108.621C112.137 108.621 113.11 107.648 113.11 106.448C113.11 105.248 112.137 104.276 110.938 104.276C109.738 104.276 108.765 105.248 108.765 106.448C108.765 107.648 109.738 108.621 110.938 108.621Z" fill="#010101"/>
<path d="M110.938 112.966C112.137 112.966 113.11 111.993 113.11 110.793C113.11 109.593 112.137 108.621 110.938 108.621C109.738 108.621 108.765 109.593 108.765 110.793C108.765 111.993 109.738 112.966 110.938 112.966Z" fill="#010101"/>
<path d="M110.938 121.655C112.137 121.655 113.11 120.683 113.11 119.483C113.11 118.283 112.137 117.31 110.938 117.31C109.738 117.31 108.765 118.283 108.765 119.483C108.765 120.683 109.738 121.655 110.938 121.655Z" fill="#010101"/>
<path d="M115.282 39.1035C116.482 39.1035 117.455 38.1308 117.455 36.931C117.455 35.7312 116.482 34.7586 115.282 34.7586C114.083 34.7586 113.11 35.7312 113.11 36.931C113.11 38.1308 114.083 39.1035 115.282 39.1035Z" fill="#010101"/>
<path d="M115.282 47.7931C116.482 47.7931 117.455 46.8205 117.455 45.6207C117.455 44.4209 116.482 43.4483 115.282 43.4483C114.083 43.4483 113.11 44.4209 113.11 45.6207C113.11 46.8205 114.083 47.7931 115.282 47.7931Z" fill="#010101"/>
<path d="M115.282 52.1379C116.482 52.1379 117.455 51.1653 117.455 49.9655C117.455 48.7657 116.482 47.7931 115.282 47.7931C114.083 47.7931 113.11 48.7657 113.11 49.9655C113.11 51.1653 114.083 52.1379 115.282 52.1379Z" fill="#010101"/>
<path d="M115.282 73.8621C116.482 73.8621 117.455 72.8895 117.455 71.6897C117.455 70.4899 116.482 69.5172 115.282 69.5172C114.083 69.5172 113.11 70.4899 113.11 71.6897C113.11 72.8895 114.083 73.8621 115.282 73.8621Z" fill="#010101"/>
<path d="M115.282 95.5862C116.482 95.5862 117.455 94.6136 117.455 93.4138C117.455 92.214 116.482 91.2414 115.282 91.2414C114.083 91.2414 113.11 92.214 113.11 93.4138C113.11 94.6136 114.083 95.5862 115.282 95.5862Z" fill="#010101"/>
<path d="M115.282 108.621C116.482 108.621 117.455 107.648 117.455 106.448C117.455 105.248 116.482 104.276 115.282 104.276C114.083 104.276 113.11 105.248 113.11 106.448C113.11 107.648 114.083 108.621 115.282 108.621Z" fill="#010101"/>
<path d="M115.282 121.655C116.482 121.655 117.455 120.683 117.455 119.483C117.455 118.283 116.482 117.31 115.282 117.31C114.083 117.31 113.11 118.283 113.11 119.483C113.11 120.683 114.083 121.655 115.282 121.655Z" fill="#010101"/>
<path d="M115.282 126C116.482 126 117.455 125.027 117.455 123.828C117.455 122.628 116.482 121.655 115.282 121.655C114.083 121.655 113.11 122.628 113.11 123.828C113.11 125.027 114.083 126 115.282 126Z" fill="#010101"/>
<path d="M119.627 39.1035C120.827 39.1035 121.8 38.1308 121.8 36.931C121.8 35.7312 120.827 34.7586 119.627 34.7586C118.428 34.7586 117.455 35.7312 117.455 36.931C117.455 38.1308 118.428 39.1035 119.627 39.1035Z" fill="#010101"/>
<path d="M119.627 47.7931C120.827 47.7931 121.8 46.8205 121.8 45.6207C121.8 44.4209 120.827 43.4483 119.627 43.4483C118.428 43.4483 117.455 44.4209 117.455 45.6207C117.455 46.8205 118.428 47.7931 119.627 47.7931Z" fill="#010101"/>
<path d="M119.627 65.1724C120.827 65.1724 121.8 64.1998 121.8 63C121.8 61.8002 120.827 60.8276 119.627 60.8276C118.428 60.8276 117.455 61.8002 117.455 63C117.455 64.1998 118.428 65.1724 119.627 65.1724Z" fill="#010101"/>
<path d="M119.627 69.5172C120.827 69.5172 121.8 68.5446 121.8 67.3448C121.8 66.145 120.827 65.1724 119.627 65.1724C118.428 65.1724 117.455 66.145 117.455 67.3448C117.455 68.5446 118.428 69.5172 119.627 69.5172Z" fill="#010101"/>
<path d="M119.627 73.8621C120.827 73.8621 121.8 72.8895 121.8 71.6897C121.8 70.4899 120.827 69.5172 119.627 69.5172C118.428 69.5172 117.455 70.4899 117.455 71.6897C117.455 72.8895 118.428 73.8621 119.627 73.8621Z" fill="#010101"/>
<path d="M119.627 86.8966C120.827 86.8966 121.8 85.9239 121.8 84.7241C121.8 83.5243 120.827 82.5517 119.627 82.5517C118.428 82.5517 117.455 83.5243 117.455 84.7241C117.455 85.9239 118.428 86.8966 119.627 86.8966Z" fill="#010101"/>
<path d="M119.627 91.2414C120.827 91.2414 121.8 90.2688 121.8 89.069C121.8 87.8692 120.827 86.8966 119.627 86.8966C118.428 86.8966 117.455 87.8692 117.455 89.069C117.455 90.2688 118.428 91.2414 119.627 91.2414Z" fill="#010101"/>
<path d="M119.627 112.966C120.827 112.966 121.8 111.993 121.8 110.793C121.8 109.593 120.827 108.621 119.627 108.621C118.428 108.621 117.455 109.593 117.455 110.793C117.455 111.993 118.428 112.966 119.627 112.966Z" fill="#010101"/>
<path d="M123.972 52.1379C125.172 52.1379 126.145 51.1653 126.145 49.9655C126.145 48.7657 125.172 47.7931 123.972 47.7931C122.772 47.7931 121.8 48.7657 121.8 49.9655C121.8 51.1653 122.772 52.1379 123.972 52.1379Z" fill="#010101"/>
<path d="M123.972 60.8276C125.172 60.8276 126.145 59.855 126.145 58.6552C126.145 57.4554 125.172 56.4828 123.972 56.4828C122.772 56.4828 121.8 57.4554 121.8 58.6552C121.8 59.855 122.772 60.8276 123.972 60.8276Z" fill="#010101"/>
<path d="M123.972 73.8621C125.172 73.8621 126.145 72.8895 126.145 71.6897C126.145 70.4899 125.172 69.5172 123.972 69.5172C122.772 69.5172 121.8 70.4899 121.8 71.6897C121.8 72.8895 122.772 73.8621 123.972 73.8621Z" fill="#010101"/>
<path d="M123.972 86.8966C125.172 86.8966 126.145 85.9239 126.145 84.7241C126.145 83.5243 125.172 82.5517 123.972 82.5517C122.772 82.5517 121.8 83.5243 121.8 84.7241C121.8 85.9239 122.772 86.8966 123.972 86.8966Z" fill="#010101"/>
<path d="M123.972 91.2414C125.172 91.2414 126.145 90.2688 126.145 89.069C126.145 87.8692 125.172 86.8966 123.972 86.8966C122.772 86.8966 121.8 87.8692 121.8 89.069C121.8 90.2688 122.772 91.2414 123.972 91.2414Z" fill="#010101"/>
<path d="M123.972 104.276C125.172 104.276 126.145 103.303 126.145 102.103C126.145 100.904 125.172 99.931 123.972 99.931C122.772 99.931 121.8 100.904 121.8 102.103C121.8 103.303 122.772 104.276 123.972 104.276Z" fill="#010101"/>
<path d="M123.972 108.621C125.172 108.621 126.145 107.648 126.145 106.448C126.145 105.248 125.172 104.276 123.972 104.276C122.772 104.276 121.8 105.248 121.8 106.448C121.8 107.648 122.772 108.621 123.972 108.621Z" fill="#010101"/>
<path d="M123.972 112.966C125.172 112.966 126.145 111.993 126.145 110.793C126.145 109.593 125.172 108.621 123.972 108.621C122.772 108.621 121.8 109.593 121.8 110.793C121.8 111.993 122.772 112.966 123.972 112.966Z" fill="#010101"/>
<path d="M123.972 117.31C125.172 117.31 126.145 116.338 126.145 115.138C126.145 113.938 125.172 112.966 123.972 112.966C122.772 112.966 121.8 113.938 121.8 115.138C121.8 116.338 122.772 117.31 123.972 117.31Z" fill="#010101"/>
<path d="M123.972 126C125.172 126 126.145 125.027 126.145 123.828C126.145 122.628 125.172 121.655 123.972 121.655C122.772 121.655 121.8 122.628 121.8 123.828C121.8 125.027 122.772 126 123.972 126Z" fill="#010101"/>
<path d="M0.144531 10.8621V19.5517C0.144531 22.4325 1.28892 25.1953 3.32596 27.2324C5.36299 29.2694 8.1258 30.4138 11.0066 30.4138H19.6963C22.5771 30.4138 25.3399 29.2694 27.3769 27.2324C29.4139 25.1953 30.5583 22.4325 30.5583 19.5517V10.8621C30.5583 7.98127 29.4139 5.21846 27.3769 3.18143C25.3399 1.14439 22.5771 0 19.6963 0H11.0066C8.1258 0 5.36299 1.14439 3.32596 3.18143C1.28892 5.21846 0.144531 7.98127 0.144531 10.8621ZM11.0066 4.34483H19.6963C21.4247 4.34483 23.0824 5.03146 24.3046 6.25368C25.5269 7.4759 26.2135 9.13359 26.2135 10.8621V19.5517C26.2135 21.2802 25.5269 22.9379 24.3046 24.1601C23.0824 25.3823 21.4247 26.069 19.6963 26.069H11.0066C9.27812 26.069 7.62043 25.3823 6.39821 24.1601C5.17599 22.9379 4.48936 21.2802 4.48936 19.5517V10.8621C4.48936 9.13359 5.17599 7.4759 6.39821 6.25368C7.62043 5.03146 9.27812 4.34483 11.0066 4.34483Z" fill="#010101"/>
<path d="M15.3514 21.7241C18.9508 21.7241 21.8687 18.8063 21.8687 15.2069C21.8687 11.6075 18.9508 8.68966 15.3514 8.68966C11.7521 8.68966 8.83419 11.6075 8.83419 15.2069C8.83419 18.8063 11.7521 21.7241 15.3514 21.7241Z" fill="#010101"/>
<path d="M115.282 0H106.593C103.712 0 100.949 1.14439 98.9122 3.18142C96.8751 5.21846 95.7307 7.98127 95.7307 10.8621V19.5517C95.7307 22.4325 96.8751 25.1953 98.9122 27.2324C100.949 29.2694 103.712 30.4138 106.593 30.4138H115.282C118.163 30.4138 120.926 29.2694 122.963 27.2324C125 25.1953 126.145 22.4325 126.145 19.5517V10.8621C126.145 7.98127 125 5.21846 122.963 3.18142C120.926 1.14439 118.163 0 115.282 0ZM121.8 10.8621V19.5517C121.8 21.2802 121.113 22.9379 119.891 24.1601C118.669 25.3823 117.011 26.069 115.282 26.069H106.593C104.864 26.069 103.207 25.3823 101.984 24.1601C100.762 22.9379 100.076 21.2802 100.076 19.5517V10.8621C100.076 9.13359 100.762 7.4759 101.984 6.25368C103.207 5.03147 104.864 4.34483 106.593 4.34483H115.282C117.011 4.34483 118.669 5.03147 119.891 6.25368C121.113 7.4759 121.8 9.13359 121.8 10.8621Z" fill="#010101"/>
<path d="M104.42 15.2069C104.42 18.8063 107.338 21.7241 110.938 21.7241C114.537 21.7241 117.455 18.8063 117.455 15.2069C117.455 11.6075 114.537 8.68966 110.938 8.68966C107.338 8.68966 104.42 11.6075 104.42 15.2069Z" fill="#010101"/>
<path d="M11.0066 126H19.6963C22.5771 126 25.3399 124.856 27.3769 122.819C29.4139 120.782 30.5583 118.019 30.5583 115.138V106.448C30.5583 103.567 29.4139 100.805 27.3769 98.7676C25.3399 96.7306 22.5771 95.5862 19.6963 95.5862H11.0066C8.1258 95.5862 5.36299 96.7306 3.32596 98.7676C1.28892 100.805 0.144531 103.567 0.144531 106.448V115.138C0.144531 118.019 1.28892 120.782 3.32596 122.819C5.36299 124.856 8.1258 126 11.0066 126ZM4.48936 115.138V106.448C4.48936 104.72 5.176 103.062 6.39822 101.84C7.62044 100.618 9.27812 99.931 11.0066 99.931H19.6963C21.4247 99.931 23.0824 100.618 24.3046 101.84C25.5269 103.062 26.2135 104.72 26.2135 106.448V115.138C26.2135 116.866 25.5269 118.524 24.3046 119.746C23.0824 120.969 21.4247 121.655 19.6963 121.655H11.0066C9.27812 121.655 7.62044 120.969 6.39822 119.746C5.176 118.524 4.48936 116.866 4.48936 115.138Z" fill="#010101"/>
<path d="M21.8687 110.793C21.8687 107.194 18.9508 104.276 15.3514 104.276C11.7521 104.276 8.83419 107.194 8.83419 110.793C8.83419 114.392 11.7521 117.31 15.3514 117.31C18.9508 117.31 21.8687 114.392 21.8687 110.793Z" fill="#010101"/>
</g>
<defs>
<clipPath id="clip0_250_143">
<rect width="126" height="126" fill="white" transform="translate(0.144531)"/>
</clipPath>
</defs>
</svg>
